<svg width="48" height="48" viewBox="0 0 62 61" fill="none" xmlns="http://www.w3.org/2000/svg">
<g clip-path="url(#clip0_49_664)">
<path d="M30.9035 5.33252C17.0057 5.33252 5.72632 16.6119 5.72632 30.5097C5.72632 44.4074 17.0057 55.6868 30.9035 55.6868C44.8012 55.6868 56.0806 44.4074 56.0806 30.5097C56.0806 16.6119 44.8012 5.33252 30.9035 5.33252ZM18.4911 46.3209C19.5737 44.055 26.1702 41.8394 30.9035 41.8394C35.6368 41.8394 42.2584 44.055 43.3158 46.3209C39.8917 49.04 35.5864 50.6514 30.9035 50.6514C26.2205 50.6514 21.9152 49.04 18.4911 46.3209ZM46.9161 42.6702C43.3158 38.2894 34.5793 36.804 30.9035 36.804C27.2276 36.804 18.4911 38.2894 14.8908 42.6702C12.3227 39.2965 10.7617 35.0919 10.7617 30.5097C10.7617 19.4065 19.8003 10.3679 30.9035 10.3679C42.0066 10.3679 51.0452 19.4065 51.0452 30.5097C51.0452 35.0919 49.4842 39.2965 46.9161 42.6702ZM30.9035 15.4034C26.0191 15.4034 22.0915 19.331 22.0915 24.2154C22.0915 29.0997 26.0191 33.0274 30.9035 33.0274C35.7878 33.0274 39.7155 29.0997 39.7155 24.2154C39.7155 19.331 35.7878 15.4034 30.9035 15.4034ZM30.9035 27.992C28.8138 27.992 27.1269 26.3051 27.1269 24.2154C27.1269 22.1257 28.8138 20.4388 30.9035 20.4388C32.9932 20.4388 34.68 22.1257 34.68 24.2154C34.68 26.3051 32.9932 27.992 30.9035 27.992Z" fill="black"/>
</g>
<defs>
<clipPath id="clip0_49_664">
<rect width="60.4251" height="60.4251" fill="white" transform="translate(0.690918 0.296875)"/>
</clipPath>
</defs>
</svg>
