<svg width="100" height="100" viewBox="0 0 100 100" fill="none" xmlns="http://www.w3.org/2000/svg">
<path d="M12.1793 81.9447C13.176 83.095 14.2273 84.1982 15.3299 85.2507C19.0466 88.8498 23.4787 91.8749 28.2334 94.1629C29.9852 94.9699 31.6011 95.8061 33.4944 96.5259C33.9674 96.7047 34.4507 96.8961 34.9587 97.0685C35.471 97.2283 36.0021 97.388 36.5574 97.5461C37.1094 97.7159 37.6981 97.8365 38.3136 97.9618C38.9296 98.0835 39.5693 98.2225 40.2563 98.2918C36.8482 97.585 33.5264 96.523 30.347 95.1238C27.1478 93.704 24.108 91.9594 21.2769 89.9186C15.6068 85.832 10.757 80.585 7.21451 74.5869C7.06829 74.4077 6.84628 74.066 6.5802 73.6307L6.1523 72.9178L5.72065 72.0975C5.4336 71.5284 5.103 70.9509 4.84981 70.3913C4.62278 69.9019 4.38513 69.4174 4.13702 68.938C5.23793 71.6358 6.5087 73.9957 7.9316 76.2397C8.58702 77.2688 9.28075 78.2739 10.0114 79.2527C9.90819 79.1157 9.80068 78.9825 9.698 78.8449C10.481 79.906 11.3058 80.9365 12.1707 81.9341L12.1793 81.9447ZM0.717646 56.0836L0.458008 54.0342C0.595621 55.285 0.755274 56.6828 1.04717 58.0822L0.871386 57.0885C0.806504 56.7557 0.755216 56.4204 0.717646 56.0836ZM46.1285 98.1469C49.7043 98.5029 53.4543 98.3965 57.1274 97.8248C60.8026 97.2552 64.3972 96.2451 67.7392 94.943C61.5842 97.3245 55.0519 98.3839 48.6614 98.2067C47.8062 98.1935 46.9633 98.2067 46.1285 98.1469Z" fill="#FF6347"/>
<path d="M24.9566 90.9496L24.8174 90.8623C24.8641 90.8914 24.9098 90.921 24.9566 90.9496ZM30.1445 93.7616C33.091 95.1105 36.1771 96.1418 39.349 96.8376C34.1412 95.6688 29.2404 93.6067 24.9566 90.9496C26.6015 91.9793 28.3308 92.9323 30.1445 93.7616ZM95.1481 56.6396C95.2008 55.804 95.3072 54.9271 95.3341 54.5098C95.6534 51.8279 95.748 49.5378 95.7346 47.2404C95.6754 46.8263 95.5061 46.0504 95.4389 45.1682C95.3567 44.2839 95.2357 43.4182 95.1336 42.564C94.9782 41.7173 94.8444 40.879 94.6745 40.0571C95.8975 46.2011 95.877 52.3689 94.7519 58.1882C94.8756 57.6699 95.0077 57.1537 95.1481 56.6396Z" fill="#FF6347"/>
<path d="M0.476997 44.152C0.932841 40.5027 1.90312 36.9455 2.8261 34.5756L2.4525 36.3103C2.68311 35.802 3.05564 34.621 3.56362 33.3713L3.93024 32.4183L4.33501 31.4943C4.60379 30.8961 4.82956 30.3292 5.0677 29.8944C4.90482 30.3022 4.74785 30.7417 4.55863 31.1828C4.37318 31.6255 4.16515 32.075 3.96679 32.5272L4.78064 30.7243C3.95947 32.7482 3.25259 34.8152 2.66322 36.9158C2.05418 39.2175 1.57253 41.6366 1.31343 43.8082C1.23817 44.3498 1.21183 44.8786 1.16291 45.3832C1.1269 45.8877 1.06454 46.369 1.0597 46.8239C1.03713 47.733 1.00595 48.529 1.02154 49.1657C1.07798 50.4398 1.15593 51.075 1.26827 50.7201C1.48921 50.0151 1.48491 46.3897 2.25576 41.8524C2.66806 39.5909 3.25991 37.1105 4.06301 34.6803C4.8602 32.248 5.9052 29.8897 6.9873 27.8091L6.66907 28.4924L6.3761 29.1963L5.77619 30.6195L5.22574 32.0898L4.94567 32.8313C4.86343 33.0831 4.78011 33.3359 4.69786 33.5897C3.98829 35.6032 3.45773 37.7234 2.99543 39.8606L2.69494 41.4748C2.58474 42.0111 2.53797 42.5569 2.45627 43.0969C2.28532 44.1763 2.22297 45.2637 2.12782 46.3384C2.02085 48.493 1.99935 50.6212 2.1977 52.6563C2.18964 52.1729 2.18158 51.7435 2.18856 51.3278L2.25038 50.0823C2.27619 49.6544 2.27135 49.2006 2.3122 48.6808C2.34983 48.1609 2.38423 47.5749 2.41434 46.8815C2.62452 43.3867 3.25937 39.9268 4.24632 36.5784C5.18703 33.2158 6.29654 30.2546 7.94952 27.5716L8.3801 26.7645C8.67145 26.223 8.91389 25.6888 9.22191 25.1441C9.57293 24.5464 9.9089 24.099 10.1809 23.6891C10.461 23.2835 10.6986 22.927 10.9706 22.5811L12.9498 19.8933C12.9902 19.8886 12.938 19.9912 12.8423 20.1435C13.1687 19.686 13.5202 19.2463 13.8954 18.8266C14.3012 18.3638 14.6953 17.873 15.0291 17.4679C15.1076 17.4642 15.1839 17.4621 15.364 17.3352C20.0138 12.4711 25.7361 8.50711 32.1845 6.00816L33.6182 5.45865L35.0696 4.98319L35.7915 4.74625L36.5226 4.54528L37.9794 4.14703C38.8126 3.94976 39.6565 3.74984 40.5172 3.57002L41.8272 3.34472C42.2674 3.27015 42.7098 3.18606 43.1624 3.14481C44.0623 3.0385 44.8471 2.81426 45.2702 2.75925C47.6188 2.62756 49.963 2.65401 52.7148 2.87349C52.9282 2.87719 53.2604 2.89623 53.6458 2.91686C54.0312 2.93854 54.472 2.94912 54.8994 2.98773C55.4004 3.09879 55.9352 3.2088 56.4964 3.31616C59.9201 3.8387 63.2304 4.7727 66.3799 6.01503L66.3761 6.00022L67.5824 6.47304L68.8134 7.0326C69.6579 7.39435 70.4852 7.85712 71.3399 8.29291C71.7689 8.50817 72.1753 8.77102 72.5967 9.00902C73.0106 9.25971 73.4439 9.48183 73.8438 9.75579C74.6544 10.2857 75.4764 10.7929 76.2338 11.3594C77.455 12.2264 78.6387 13.1436 79.7816 14.1085C79.8064 14.1307 79.8322 14.1513 79.8569 14.173L79.8795 14.1931L80.6627 14.8923L81.412 15.6279L82.1619 16.3641C82.4102 16.6111 82.6403 16.8756 82.8806 17.1305C82.7645 16.9454 82.7688 16.8708 82.7731 16.7973C82.4027 16.4482 81.9646 16.0352 81.5319 15.6285C82.2538 16.2748 82.8838 16.8592 83.401 17.3362C83.6004 17.5869 83.8181 17.8334 84.0245 18.1026L84.6621 18.9308L85.3399 19.7923L86.0145 20.7189C87.2111 22.2199 88.2674 23.8256 89.2705 25.463C89.7349 26.3028 90.2472 27.1189 90.6606 27.9878L91.3127 29.2762L91.8997 30.5968C92.0685 30.8787 92.0029 30.6084 92.0238 30.5608C92.6824 32.1274 93.2118 33.7563 93.6913 35.398C94.6079 38.3647 95.2216 41.414 95.5233 44.5005C95.6443 45.2293 95.6959 45.9666 95.8028 46.6969L95.7367 48.2434C95.7362 48.8267 95.7674 49.4101 95.7421 49.9945L95.6733 51.7535C95.6647 52.1502 95.6066 52.5834 95.5728 53.0541C95.5276 53.5237 95.504 54.0304 95.4352 54.5645L95.2137 56.2527C95.1427 56.8445 95.0057 57.4527 94.9003 58.0885C94.3756 60.88 93.5999 63.6201 92.5824 66.2766C92.4523 66.7134 92.3528 67.0625 92.2641 67.2576C91.9271 68.0515 91.5675 68.8199 91.2202 69.5768C90.8316 70.314 90.4752 71.0513 90.0768 71.7494C88.845 74.0477 87.4154 76.238 85.8038 78.2964C85.6232 78.5286 85.455 78.7645 85.2733 78.9824L84.7368 79.6202C84.382 80.0322 84.0648 80.4442 83.7283 80.8017C83.0559 81.5167 82.4914 82.18 81.9619 82.6787C81.3556 83.3017 81.4099 83.3308 81.8297 83.0304C82.1244 82.8162 82.4126 82.5936 82.6941 82.3629L83.8348 81.3507C84.2519 80.9926 84.6513 80.5886 85.0362 80.2078C85.4168 79.8243 85.7974 79.4747 86.0909 79.1585C86.6827 78.5286 87.0714 78.1398 86.9886 78.3128C86.0334 80.0819 84.2938 82.264 81.7512 84.6778C80.4541 85.8557 78.9946 87.1355 77.2686 88.3694C76.4268 89.0152 75.4909 89.6059 74.5367 90.2512C73.5508 90.8451 72.5435 91.4956 71.442 92.0732C69.0316 93.3647 73.2509 91.2931 73.3649 91.2735C72.9579 91.5888 72.5312 91.8785 72.0871 92.1409C71.2926 92.5565 70.5051 92.9855 69.6821 93.343C69.201 93.5604 68.7285 93.7952 68.242 93.9983L66.775 94.5917L67.5512 94.2913C69.1381 93.6709 70.6212 92.94 71.9602 92.217C71.4571 92.5164 70.9066 92.8628 70.3035 93.1753C69.6568 93.5043 68.9876 93.8639 68.3162 94.185L66.3675 95.0767C73.3385 92.5851 79.7445 88.462 84.8158 83.087C87.3547 80.4077 89.6188 77.4645 91.4648 74.2806C93.3222 71.1032 94.8164 67.7333 95.92 64.2324C94.2246 69.4842 91.5814 74.3086 88.4045 78.3879C94.18 70.7154 97.6235 61.3088 98.0799 51.6076C98.0794 52.1423 98.0256 52.6749 97.9896 53.2074C97.945 53.74 97.9235 54.2747 97.8601 54.8057C97.7219 55.8661 97.623 56.9323 97.4155 57.9837C97.0801 60.0993 96.5361 62.1783 95.92 64.2324C97.136 60.5192 97.8622 56.6039 98.1482 52.6664C98.446 48.7257 98.1976 44.7612 97.58 40.9195C98.6411 46.0083 98.8169 51.7742 97.9127 57.4723C98.5481 53.7971 98.7094 50.0088 98.4653 46.2527C98.4105 44.8178 98.2385 43.393 98.0971 42.074C97.8945 40.7645 97.7413 39.5555 97.5451 38.5776C98.3218 42.1877 98.6282 45.2668 98.7777 48.1693C98.6341 41.8349 97.3005 35.417 94.6815 29.3883C96.1109 32.6626 97.2843 36.1849 98.0009 39.8062C98.7212 43.4237 99.0206 47.1248 98.8502 50.6852C98.8422 50.2685 98.8599 49.8522 98.8352 49.4339L98.7777 48.1693C98.9319 53.9077 98.0337 59.5952 96.2533 64.9438C95.3599 67.6178 94.2563 70.2162 92.9205 72.6887C91.5874 75.1574 90.0483 77.513 88.319 79.7312C90.2935 77.4623 92.3781 74.2552 94.0418 70.7324C95.698 67.2021 96.9274 63.3841 97.773 60.0495C96.5291 66.0375 94.0601 71.9461 90.4778 77.2228C86.9053 82.5036 82.2259 87.1467 76.8116 90.7102C71.4039 94.2849 65.2682 96.759 58.9719 97.9813C55.8455 98.5921 52.6676 98.9124 49.4803 98.938C46.351 98.9544 43.2269 98.6862 40.1479 98.1368L41.7632 98.4387C42.3018 98.5392 42.848 98.5948 43.3898 98.6741C44.4735 98.8455 45.5696 98.91 46.6619 99.0089C48.8514 99.13 51.0527 99.1707 53.2469 99.0062C55.445 98.8915 57.6291 98.5689 59.8029 98.1748C60.8813 97.9337 61.9725 97.7364 63.0374 97.427C63.5717 97.28 64.1125 97.1515 64.6431 96.988L66.2315 96.4814C65.4295 96.7257 64.5855 97.0494 63.6841 97.2868L62.5547 97.6137C64.9248 96.9919 67.2445 96.1971 69.4945 95.2359C70.5237 94.794 71.5369 94.3169 72.5322 93.8052C70.6674 94.7785 68.744 95.6389 66.7728 96.3819C63.014 97.7621 59.1077 98.717 55.1295 99.2284C54.5328 99.3214 53.9888 99.3505 53.5012 99.4008L52.196 99.5277C51.4279 99.5875 50.8607 99.6144 50.464 99.6573C49.6701 99.735 49.5572 99.8075 49.8733 99.8672C50.1888 99.927 50.9328 99.9746 51.8477 100C52.7599 99.9947 53.842 99.9466 54.8263 99.8583C64.7156 98.8603 73.7954 95.0418 81.0717 89.3251C88.3529 83.6074 93.9295 76.0122 97.0376 67.3941C97.2327 66.8938 97.3827 66.3776 97.5451 65.8656C97.7026 65.3521 97.8767 64.8438 98.0192 64.3255C98.2831 63.2836 98.5954 62.2539 98.7976 61.1962L99.1303 59.6174L99.3921 58.0245L99.5216 57.2274L99.6141 56.4251L99.7979 54.8205C100.173 50.5292 100.025 46.1919 99.3614 41.9354C99.0067 39.5269 98.3831 36.6673 97.5795 34.1202L96.9613 32.2776C96.7462 31.6921 96.5178 31.14 96.3146 30.6206L96.0152 29.8722L95.7082 29.2L95.1809 28.0767C93.4962 24.7135 91.3793 21.5059 88.9012 18.5225C86.4258 15.538 83.5816 12.7746 80.3751 10.3682L79.1688 9.46755L77.9179 8.61712L77.2911 8.19084L76.6445 7.79101L75.3452 6.99346C73.574 5.98647 71.7597 5.01598 69.8471 4.21103C67.9544 3.36588 65.9735 2.67992 63.9571 2.06642C62.9385 1.7914 61.9247 1.48465 60.8802 1.27363C60.3598 1.1631 59.8438 1.02876 59.3175 0.936207L57.735 0.660661C53.9506 0.00538014 50.0141 -0.150639 46.0814 0.140244C42.1508 0.439061 38.2035 1.17314 34.4186 2.44034L33.0022 2.92321C32.5286 3.08028 32.0722 3.2839 31.6061 3.46213C31.1449 3.652 30.6735 3.81807 30.2209 4.0275L28.8598 4.64788C28.4018 4.84674 27.9594 5.07521 27.5181 5.30633L26.1908 5.99229L24.8996 6.73907C24.4696 6.9887 24.0363 7.23251 23.6246 7.51017L22.3753 8.3183C21.9549 8.58115 21.5657 8.88843 21.1599 9.17085C20.7615 9.46385 20.3482 9.73675 19.9633 10.0456L18.8038 10.9643C18.4119 11.2631 18.0421 11.5873 17.6733 11.912L16.5643 12.8799L15.5048 13.8948C15.1522 14.2328 14.7958 14.567 14.4673 14.9266C11.7629 17.7286 9.38693 20.7856 7.44368 24.0202C5.53809 27.1933 3.97653 30.5547 2.78471 34.0488C0.432917 40.8819 -0.241711 47.8118 0.0722195 54.0711C0.00448781 51.4944 -0.00680079 47.7991 0.476997 44.152ZM76.3429 91.9869C77.9764 90.9481 79.5494 89.82 81.0545 88.6079C79.5279 89.845 77.9593 90.9874 76.3429 91.9869ZM97.9617 63.2784C97.8009 63.7549 97.6649 64.2256 97.4875 64.6751L96.9731 66.0095L96.7226 66.6695L96.4468 67.3206C96.2626 67.7593 96.084 68.2002 95.9109 68.6433C94.9156 71.0823 93.7318 73.4427 92.37 75.7038C91.0149 77.9648 89.4441 80.0835 87.7659 82.0715C86.937 83.0759 86.0339 84.0072 85.1459 84.9386L83.7584 86.2729C83.3031 86.7214 82.8048 87.1213 82.3328 87.5444C81.9372 87.8829 81.5383 88.2139 81.1368 88.5397C82.6282 87.3345 84.0455 86.0431 85.3813 84.6726C83.4486 86.6435 81.3463 88.4463 79.0979 90.0608C78.5409 90.4426 78.0029 90.852 77.4245 91.2116L75.679 92.3059L73.8352 93.3366C73.2079 93.6794 72.5456 93.984 71.8817 94.3177C72.3572 94.0421 72.8384 93.7762 73.3251 93.5202C73.8739 93.2203 74.4496 92.866 75.0119 92.5417C75.5785 92.2239 76.0935 91.8748 76.5214 91.5829C76.9493 91.2909 77.2847 91.0487 77.4594 90.8922C77.21 91.0588 76.9562 91.2185 76.7036 91.3809C76.9754 91.2045 77.2455 91.0256 77.5137 90.844C77.5024 90.8562 77.4787 90.8753 77.4594 90.8922C83.3359 86.9436 88.3421 81.7547 92.0932 75.8392C95.8609 69.929 98.3127 63.262 99.3287 56.4817C99.1083 59.2012 98.6019 61.3728 97.9617 63.2784ZM89.8435 21.9993C91.4613 24.4032 92.8595 26.9433 94.0219 29.5898C94.1563 29.8802 94.2832 30.1748 94.4084 30.4699C97.0763 36.8979 98.2901 43.7934 98.1122 50.5863C98.1573 48.3386 98.0057 46.0919 97.7525 43.8643C97.466 41.2971 96.9365 38.7606 96.2345 36.2796C94.8573 31.3044 92.6205 26.589 89.7812 22.2902C90.0419 22.6446 90.3166 23.0285 90.6009 23.4358C90.9054 23.8572 91.1906 24.2919 91.4557 24.7384L91.1127 24.1519L90.7423 23.5812L90.0016 22.441C89.4973 21.6878 88.9507 20.9622 88.4244 20.2239C87.8535 19.5184 87.3122 18.7896 86.7182 18.1026C86.2688 17.5985 85.8382 17.0776 85.3824 16.5799C86.9907 18.2485 88.5007 20.0388 89.8435 21.9993ZM52.0815 0.60936C52.8701 0.650612 53.6603 0.726242 54.4505 0.784419C55.0977 0.837836 55.7417 0.931976 56.3793 1.00285C56.5706 1.01078 56.7728 1.02347 57.0265 1.0515C57.2797 1.08588 57.5823 1.14987 57.9774 1.23873C60.9173 1.72106 63.5997 2.44616 65.5037 3.19505C69.158 4.55585 72.558 6.2488 75.6419 8.20406C78.7269 10.1556 81.4953 12.3753 83.8375 14.7997C84.9169 15.9521 84.6019 15.7009 84.0068 15.1414L84.9002 16.0743C84.5046 15.6861 84.1159 15.2926 83.7144 14.9129L82.4774 13.8075C82.7785 14.0667 83.5085 14.6871 84.0068 15.1414C80.0348 11.1541 75.392 7.84337 70.3664 5.40788C65.337 2.97345 59.9212 1.46985 54.5075 0.869568C55.3773 0.964767 55.8041 0.985922 56.2105 0.996499C55.6272 0.929332 55.0424 0.837307 54.4505 0.784419C53.6555 0.733118 52.8621 0.663306 52.0729 0.625226L49.7292 0.570752C50.5054 0.570223 51.2919 0.591378 52.0815 0.60936Z" fill="#FF6347"/>
<path d="M62.3249 97.6787L62.5539 97.6126C62.3141 97.6761 62.0782 97.7459 61.8368 97.8062C62.0002 97.766 62.1642 97.7269 62.3249 97.6787ZM86.2363 77.2963C88.5129 74.3414 90.5244 70.8106 91.8086 67.769L91.793 67.7722C88.5349 75.3468 83.2502 81.8721 76.6555 86.6765C77.8264 85.8758 78.9768 85.0464 80.1055 84.1892C81.5558 82.6977 83.9829 80.2723 86.2363 77.2963ZM19.0024 86.1259C22.8578 89.5171 27.5071 92.4682 32.6821 94.4563C34.7001 95.2036 36.7594 95.8583 38.8656 96.3195C39.9106 96.585 40.9776 96.749 42.0366 96.9441C42.5671 97.0367 43.1047 97.088 43.6379 97.162C44.1723 97.2302 44.7055 97.3075 45.2436 97.3381C42.8144 97.0732 40.403 96.6765 38.0555 96.0477C35.7096 95.421 33.4099 94.6461 31.1915 93.6947C28.9845 92.728 26.8482 91.6123 24.7978 90.3554C22.7626 89.0818 20.8328 87.6597 19.0024 86.1259ZM66.5904 92.1715L65.3975 92.6322L64.1795 93.032C63.3731 93.3176 62.5415 93.5313 61.7121 93.7582C62.5458 93.5519 63.3844 93.3594 64.1977 93.0949L65.425 92.7258L66.6237 92.2947C66.5775 92.2715 66.3044 92.3238 66.5904 92.1715ZM52.5097 95.1798C51.8862 95.2321 51.2594 95.2274 50.6315 95.2337C50.0037 95.2411 49.3747 95.2544 48.7452 95.2136L49.5924 95.2919C49.8515 95.3083 50.0848 95.3279 50.2886 95.3517C51.0309 95.2893 51.7679 95.2718 52.5097 95.1798ZM27.6522 89.4912C28.3731 89.9074 29.1385 90.2739 29.8981 90.678C30.0884 90.7806 30.4335 90.8975 30.8662 91.0529C29.9411 90.6621 29.0547 90.1776 28.1537 89.7281C27.7076 89.4949 27.2781 89.2336 26.8405 88.9903C26.404 88.7449 25.9691 88.5 25.5563 88.2261L26.06 88.5572L26.5852 88.866L27.6522 89.4912Z" fill="#FF6347"/>
<path d="M57.159 26.3508C57.0726 26.3508 56.9866 26.3528 56.8996 26.3569C56.7231 24.3685 55.0213 22.8032 52.9551 22.8032C52.5688 22.8032 52.1904 22.8572 51.8257 22.9642C50.5458 21.3918 48.6012 20.4644 46.5438 20.4644C42.8143 20.4644 39.7798 23.4494 39.7798 27.119C39.7798 27.6385 39.841 28.1532 39.9624 28.6561C38.2647 29.3292 37.1201 30.9645 37.1201 32.8005C37.1201 33.8758 37.5143 34.9146 38.23 35.7264C38.9293 36.5209 39.8906 37.0473 40.9392 37.2115C41.1708 37.2776 41.4092 37.3109 41.649 37.3109H43.2621V36.2528H41.649C41.502 36.2528 41.3555 36.2316 41.2131 36.1888C41.1886 36.1816 41.1635 36.1753 41.1379 36.1713C39.46 35.9224 38.1949 34.472 38.1949 32.7996C38.1949 31.2613 39.2482 29.9068 40.7565 29.5066C40.8983 29.469 41.0182 29.376 41.0886 29.2489C41.1586 29.1223 41.1729 28.9721 41.1279 28.8346C40.9468 28.2795 40.8546 27.7025 40.8546 27.1184C40.8546 24.0321 43.4068 21.5207 46.5438 21.5207C48.3891 21.5207 50.1277 22.4091 51.1941 23.8963C51.3394 24.0989 51.6084 24.175 51.8409 24.0789C52.1939 23.9336 52.5685 23.8595 52.9542 23.8595C54.5446 23.8595 55.8394 25.1332 55.8394 26.6979C55.8394 26.7581 55.8365 26.823 55.8312 26.9022C55.8193 27.063 55.8834 27.22 56.0042 27.3291C56.1247 27.4382 56.2893 27.487 56.4509 27.4617C56.6858 27.4252 56.9233 27.4069 57.1578 27.4069C59.6322 27.4069 61.6462 29.3872 61.6462 31.8219C61.6462 34.2561 59.6331 36.2376 57.1578 36.2376C57.1409 36.2376 57.1251 36.237 57.1082 36.2364L57.061 36.2347C57.0341 36.2347 57.007 36.2359 56.9804 36.2393C56.9122 36.2482 56.8483 36.2522 56.7855 36.2522H56.3304V37.3103H56.7855C56.8795 37.3103 56.9761 37.3043 57.0744 37.2928C57.1024 37.2939 57.1295 37.2951 57.1578 37.2951C60.225 37.2951 62.7201 34.84 62.7201 31.8222C62.7207 28.8054 60.2259 26.3508 57.159 26.3508Z" fill="#FF6347"/>
<path d="M49.2977 31.1851C49.1328 31.1851 48.9995 31.3162 48.9995 31.4787C48.9986 31.3168 49.1326 31.1851 49.2977 31.1851C49.4628 31.1851 49.5959 31.3168 49.5959 31.4787C49.5964 31.3168 49.4631 31.1851 49.2977 31.1851Z" fill="#FF6347"/>
<path d="M49.2974 31.7731C49.4622 31.7731 49.5955 31.642 49.5955 31.4795C49.5961 31.642 49.4628 31.7731 49.2974 31.7731Z" fill="#FF6347"/>
<path d="M51.4571 29.3362V30.9382C52.6749 31.537 53.5154 32.7704 53.5154 34.1987C53.5154 36.2104 51.8515 37.8474 49.8057 37.8474C47.7608 37.8474 46.097 36.2104 46.097 34.1987C46.097 32.767 46.9416 31.5312 48.1643 30.9342V29.333C46.0914 30.0119 44.5903 31.9339 44.5903 34.1987C44.5903 37.0276 46.9302 39.3303 49.8057 39.3303C52.6824 39.3303 55.022 37.0279 55.022 34.1987C55.022 31.9365 53.525 30.0176 51.4571 29.3362Z" fill="#FF6347"/>
<path d="M49.7518 33.3959C50.2259 33.3959 50.6099 33.0182 50.6099 32.5523V27.8562C50.6099 27.3898 50.2259 27.0117 49.7518 27.0117C49.2783 27.0117 48.894 27.3898 48.894 27.8562V32.5523C48.894 33.0182 49.278 33.3959 49.7518 33.3959Z" fill="#FF6347"/>
<path d="M27.9747 61.307C27.9143 61.3665 27.8841 61.4259 27.8841 61.515L27.9747 61.5744C27.9747 61.515 28.035 61.4556 28.0954 61.4556C28.2766 61.4556 28.7899 60.8317 28.9409 60.802H29.0013C28.9409 60.9209 28.6993 61.3368 28.6993 61.4556V61.4853C28.6993 61.4853 28.7295 61.4853 28.7295 61.515L28.7597 61.5447C28.0652 62.4656 27.1896 63.3271 26.2838 64.1292H26.2234H26.1932C25.9214 64.2778 25.5591 64.3669 25.227 64.3669C24.1702 64.3669 23.4153 63.8322 23.3549 62.8518C23.3549 62.733 23.3549 62.5845 23.2643 62.4953L23.3549 62.3765L23.3851 62.4656V62.525C23.4153 62.525 23.4455 62.4656 23.4455 62.4359C23.4455 62.3765 23.4153 62.3468 23.4153 62.3171L23.4455 62.2577C23.3851 62.228 23.2945 62.1388 23.2945 62.0794C23.2945 61.8715 23.3549 61.6338 23.4153 61.3962L23.4757 61.4853C23.5059 61.3962 23.5059 61.307 23.5361 61.2179L23.5059 61.1882C23.5059 61.1882 23.4455 61.2179 23.4153 61.2179C23.3851 61.2179 23.3851 61.1585 23.3851 61.1585C23.4757 61.1288 23.5059 61.0694 23.5059 61.01C23.5059 60.9209 23.4757 60.802 23.4757 60.7426C23.5059 60.6832 23.5059 60.5644 23.6267 60.5644L23.7776 60.6238C23.6267 60.802 23.7474 60.9803 23.6267 61.1585L23.8682 61.3665C23.8682 61.2476 23.8984 61.1288 23.8984 61.01V60.9803L23.8078 61.0397L23.7776 60.9803C23.8078 60.802 23.8984 60.5941 24.0192 60.4455C24.0192 60.3564 23.8682 60.3861 23.8682 60.2673C23.8682 59.9702 24.0192 59.584 24.14 59.287L24.0494 59.2573L23.9286 59.3761C23.8984 59.3761 23.8984 59.3464 23.8984 59.287C23.8984 59.079 24.0494 58.9008 24.0494 58.7819V58.7225C24.0494 58.5443 24.1702 58.3363 24.2305 58.1581C24.2305 58.1284 24.2004 58.069 24.2004 58.069C24.2004 57.6828 24.4117 57.2372 24.5627 56.9104C24.5627 56.8807 24.5325 56.7916 24.5023 56.7619C24.6231 56.643 24.7439 56.4945 24.7439 56.3162C24.7439 56.2568 24.6835 56.1974 24.6835 56.138C24.6835 56.0786 24.7137 56.0192 24.774 55.9895C24.774 55.7815 24.8344 55.5736 24.8344 55.3656L24.7137 55.3359C24.0494 56.1083 23.4153 56.9104 22.7812 57.7125C22.2981 57.7125 20.0939 63.446 19.1277 63.446C18.3124 63.446 18.2823 62.8518 18.1615 62.8518C18.1011 62.8815 18.1011 62.8815 18.0709 62.8815C17.9803 62.8815 17.9199 62.8221 17.9199 62.7924C17.9199 62.0497 18.3124 61.3665 18.3426 60.802C18.403 60.2673 18.7352 59.7326 18.7352 59.2573V59.1978C18.8258 58.9008 18.9163 58.7225 18.9163 58.4255V58.3066C19.2485 57.7719 19.0673 57.356 19.2787 57.0292C19.2787 56.7916 19.8222 55.128 19.9731 54.92C19.9731 54.8903 19.9429 54.8606 19.9429 54.8606C19.9429 54.6229 20.1845 54.415 20.4563 54.415C20.577 54.415 20.7884 54.5635 20.9092 54.6526L21.1205 54.8012C21.2111 55.0091 21.3017 55.2171 21.3017 55.4547C21.3017 55.633 21.2111 55.7518 21.2111 55.93C21.2111 55.93 21.2111 55.9895 21.2413 56.0489C21.0299 56.346 21.0903 56.7619 20.9394 57.0886C20.9394 57.1183 20.9696 57.148 20.9696 57.1778C20.9696 57.4451 20.8186 57.7422 20.6978 57.9798C20.6978 58.0987 20.728 58.2175 20.728 58.3363C20.577 58.4255 20.5468 58.6037 20.5468 58.7522C20.5468 58.8414 20.5468 58.9008 20.577 59.0196C20.879 58.8711 21.7546 57.2669 21.966 57.1778L21.9358 57.148C22.0867 56.9104 23.6871 54.8309 23.7172 54.8309L23.687 54.8012C24.0192 54.5041 24.3513 54.1476 24.5929 53.7911C24.8344 53.5238 24.925 53.0485 25.3779 53.0485C25.5893 53.0485 25.9214 53.0782 26.1328 53.2267C26.163 53.197 26.2838 53.1079 26.3744 53.1079C26.7065 53.1079 26.7669 53.3158 26.7669 53.5535C26.7669 53.8505 26.7065 54.1179 26.6461 54.3853L26.5555 54.6823V54.8012C26.4347 54.92 26.2536 55.6627 26.1932 55.8409L26.1328 56.2865V56.3162C26.1328 57.2669 24.9552 59.4949 24.9552 60.7129C24.9552 60.9209 24.8344 61.0694 24.8344 61.2476C24.8344 61.2773 24.8344 61.3368 24.8646 61.3962C24.8344 61.4853 24.8042 61.515 24.8042 61.6041C24.8042 61.6932 24.8344 61.8121 24.8344 62.02C24.8344 62.5548 24.8344 63.4163 25.1062 63.4163C25.4081 63.4163 26.5857 62.2874 26.8273 62.2874H26.8575C27.1896 62.2874 27.7633 61.3665 27.9747 61.307ZM18.1917 62.2874C18.1917 62.3468 18.2219 62.3765 18.2219 62.4359C18.6446 62.228 18.7654 61.01 18.7956 60.5941C18.8258 60.2673 19.3994 57.9798 19.5202 57.6234V57.5937C19.0975 58.2175 19.2485 58.4255 19.0975 58.9008C18.9767 59.1384 18.7352 60.4455 18.5842 60.505C18.403 60.9506 18.1917 61.7824 18.1917 62.2874ZM24.5627 56.0489C24.5627 56.346 23.8078 58.5146 23.5965 58.6928C23.5965 58.0096 24.4419 56.0489 24.5023 56.0489H24.5627ZM23.838 59.6732C23.838 59.7326 23.8682 59.7623 23.8682 59.8217C23.8682 59.9405 23.8078 60.3267 23.6267 60.3267C23.5361 60.3267 23.5663 60.1188 23.5361 60.0593C23.5965 59.9108 23.687 59.7623 23.838 59.6732ZM24.4419 58.1581V58.069C24.5627 57.9501 24.6231 57.6234 24.6231 57.4451C24.4419 57.6531 24.3815 58.0096 24.3815 58.3066L24.4419 58.1581ZM23.5663 61.9606V61.9903V62.0794L23.5965 62.1091C23.687 62.1091 23.687 61.8418 23.687 61.7824V61.6041C23.5663 61.6932 23.5663 61.8418 23.5663 61.9606ZM27.7935 61.6338H27.7633C27.7633 61.6635 27.6123 61.7527 27.6123 61.8121L27.7029 61.8715C27.7633 61.7824 27.7633 61.7229 27.7935 61.6338ZM19.641 57.148V57.1183C19.5504 57.148 19.5202 57.3263 19.5202 57.3857C19.6108 57.3263 19.641 57.2669 19.641 57.148ZM24.0796 60.5941L24.14 60.6832C24.1702 60.6238 24.1702 60.5644 24.1702 60.505L24.1098 60.4752C24.1098 60.5347 24.1098 60.5644 24.0796 60.5941ZM24.2004 58.9008L24.1702 58.8711L24.1098 58.9602L24.1702 59.0196L24.2004 58.9008ZM23.838 59.6732C23.838 59.6137 23.8682 59.5543 23.8984 59.4949L23.9286 59.5246C23.8984 59.584 23.8984 59.6137 23.838 59.6732ZM19.0673 61.0694L19.0069 61.0397C19.0069 61.0694 18.9767 61.0991 18.9767 61.1288L19.0673 61.0694ZM24.5627 56.851L24.5929 56.8213C24.5929 56.7916 24.5929 56.7916 24.5627 56.7619V56.851ZM23.5663 62.7924V62.8221H23.5965L23.5663 62.7924ZM24.7137 57.2372H24.6835V57.2669C24.6835 57.2372 24.6835 57.2372 24.7137 57.2372ZM21.6942 58.1878H21.7244H21.7546H21.6942ZM30.9277 60.1782C31.441 60.1782 33.0111 60.1485 33.4036 59.9702C34.1585 59.6732 34.9435 59.287 35.6984 58.8414C36.0607 58.6037 36.6042 58.069 36.9665 58.069C37.0873 58.069 37.1779 58.1284 37.1779 58.2175C37.1779 58.8116 34.8227 60.2376 34.0377 60.7426C33.4036 61.1585 31.8335 61.1882 31.8335 61.5447C31.8335 61.8121 31.9241 62.0497 32.0449 62.2874L31.9845 62.3468C31.9845 62.4359 32.1052 62.4953 32.1656 62.525L32.0751 62.6736C32.1958 62.9112 32.2562 63.238 32.2562 63.5054C32.2562 63.8322 32.0751 63.8024 32.0751 63.8916C32.0751 63.951 32.1052 64.0104 32.1656 64.0698C32.1656 64.1886 32.0449 64.3075 32.0449 64.456C32.0449 64.5154 32.1052 64.6045 32.1656 64.6045C32.1656 64.6937 32.1656 65.0204 32.0449 65.0204C32.0449 65.0799 32.0751 65.1987 32.1656 65.2284L32.0751 65.3175L31.9543 65.2878L31.8939 65.3769C31.8939 65.4661 31.9845 65.5552 31.9845 65.6443C31.9845 65.7928 31.9241 65.9117 31.8939 66.0305C32.0449 66.0305 32.0751 66.1493 32.0751 66.2384C32.0751 66.3276 32.0449 66.4167 32.0449 66.4761C32.0449 66.5058 32.0751 66.5058 32.0751 66.5355C32.0449 66.6543 31.9241 66.7138 31.9241 66.8326C31.9241 66.9217 31.9845 67.0405 31.9845 67.1297C31.9845 67.7238 31.6221 67.9912 31.6221 68.4962C31.6221 68.8824 31.2598 69.12 31.2296 69.4765C31.1994 70.1004 30.2936 70.4866 29.6595 70.4866C29.2972 70.4866 27.9384 69.8924 27.7874 69.6251V69.5953C27.5761 69.2983 27.4553 68.9715 27.3949 68.6447V68.5853C27.2138 68.1694 27.1534 67.5753 27.1534 67.0999C27.1534 65.4363 27.6063 63.8619 27.8478 62.228L27.8176 62.1686C27.8176 62.0794 27.9082 62.02 27.9384 61.9606C27.9082 61.9012 27.878 61.8418 27.878 61.7527C27.9686 61.515 28.1498 61.1585 28.1498 60.9209C28.1498 60.8614 28.0592 60.7129 28.029 60.6832C28.1196 60.6238 28.18 60.5347 28.2102 60.4455L28.18 60.3861L28.2102 60.2376L28.1498 60.1188C28.18 59.792 28.6027 59.3761 28.6027 59.1087C28.5423 59.079 28.4819 59.0196 28.4819 58.9305C28.5423 58.8414 28.6027 58.6631 28.6027 58.5443C28.6027 58.4552 28.5725 58.366 28.5725 58.2769C28.5725 58.0987 28.8443 58.0096 28.8443 57.8313C28.8443 57.7422 28.7537 57.6828 28.7537 57.5937C28.7537 57.4748 28.8744 56.9995 28.965 56.9401C28.965 56.9698 29.0556 56.9995 29.0858 56.9995C29.116 56.9995 29.1462 56.9698 29.1462 56.9698C29.0858 56.8807 28.965 56.9104 28.965 56.7916C28.965 56.7321 29.1462 56.643 29.2066 56.643L29.116 56.5539C29.116 56.4945 29.2368 56.4648 29.2368 56.3757C29.2368 56.2865 29.1764 56.2271 29.1764 56.1677C29.1764 56.0489 29.3274 56.0786 29.3274 56.0192C29.3274 55.93 29.2972 55.8409 29.267 55.7815H29.3878C29.4481 55.7518 29.5085 55.6924 29.5085 55.6627C29.5085 55.633 29.4783 55.5439 29.4783 55.5141C29.5085 55.1874 29.7803 54.9497 29.8709 54.6229L29.7803 54.4744V54.3259C29.7803 54.1773 29.7803 54.0288 29.9011 53.91L29.9614 54.0288L30.052 53.9694C30.0218 53.91 29.9011 53.9397 29.8709 53.8803C29.9614 53.4941 30.0218 53.3158 30.1426 53.0485L30.1124 52.989C30.1124 52.8999 30.1728 52.8405 30.2634 52.7514L30.3842 52.9593C30.3842 52.9593 30.4144 52.9296 30.4144 52.8999C30.4144 52.8405 30.3842 52.7217 30.354 52.6623C30.3842 52.484 30.5955 52.484 30.5955 52.3058C30.5955 52.2167 30.5049 52.1275 30.4144 52.0978C30.6257 51.8899 30.9277 51.0878 30.9277 50.7907C30.9277 50.3451 31.5316 49.8995 31.5316 49.8698C31.5014 49.8104 31.4712 49.751 31.4712 49.6321C31.4712 49.5133 31.5617 49.1271 31.7127 49.038C32.2864 48.1468 32.8601 45.6514 34.0377 45.6514C34.551 45.8593 35.3662 46.1564 35.3662 46.7505C35.3662 46.9585 35.2153 46.8694 35.2153 46.9585C35.2153 47.6417 34.9133 47.9685 34.9133 48.533C34.9133 48.9192 34.3396 49.0974 34.3396 49.751L34.4604 49.7213L34.551 49.8104C34.4 50.1074 34.2189 50.1372 34.1283 50.1372H34.0679C34.0679 50.1372 34.0377 50.1372 34.0377 50.2263V50.3748C34.0377 50.3748 34.0377 50.4639 34.0075 50.5233L34.0377 50.5828C34.1585 50.5828 34.0981 50.4045 34.1585 50.4045C34.2189 50.4045 34.2792 50.4342 34.2792 50.4639C34.2792 50.7907 33.8263 50.8798 33.8263 51.1769C33.8263 51.3254 33.4942 51.474 33.4942 52.0681C33.4942 52.2761 32.7997 53.197 32.7997 53.702C32.8299 53.5535 33.0111 53.3455 33.1017 53.2267C33.1319 53.2564 33.1319 53.3158 33.1319 53.3455C33.1319 53.6723 32.5582 55.0685 32.4072 55.3953L32.2864 55.3359L32.1958 55.4547V55.6033C32.1958 55.633 32.226 55.6924 32.226 55.7221C32.226 55.8112 32.1958 55.8112 32.1656 55.8112H32.1354C32.1354 55.8112 32.0751 55.8112 32.0751 55.8409C32.0751 55.9895 32.226 55.8706 32.226 56.0786C32.226 56.4351 31.6523 57.4451 31.4108 57.7125C31.4108 57.9204 30.4446 59.4355 30.4446 59.9405C30.4747 59.9999 30.8371 60.1782 30.9277 60.1782ZM30.5653 65.7334C30.5653 65.1987 30.7163 64.664 30.7163 64.1292C30.7163 64.0995 30.6861 64.0401 30.6861 64.0104C30.7465 63.7727 30.7465 63.5351 30.7465 63.0598C30.7465 62.4359 30.7163 61.7527 30.4446 61.5447C30.4446 61.515 30.4747 61.3962 30.4747 61.3665C30.4446 61.3665 30.1124 60.802 30.052 60.802C29.8709 61.6338 29.2972 61.7527 29.2972 62.8815C29.2972 62.9706 29.3878 63.0598 29.3878 63.1786C29.3878 63.446 29.0858 63.6539 29.0858 63.951C29.0858 64.0104 29.116 64.0698 29.1462 64.0995C29.1462 64.2778 29.0556 64.4263 29.0254 64.6045L29.0858 64.664C28.9348 64.8422 28.9348 65.3472 28.9348 65.6146C28.9348 65.674 28.965 65.674 28.965 65.7334C28.8141 66.0899 28.7839 66.5355 28.7839 66.9811C28.7839 67.2782 28.7537 67.605 28.7537 67.9317C28.7537 68.3179 28.8141 68.7338 28.965 68.9715V69.12C28.965 69.2092 28.965 69.2389 29.116 69.2389C29.5085 69.2389 30.2936 67.5456 30.2936 67.2485C30.2936 67.1891 30.2936 67.0999 30.2634 67.0405C30.4446 66.9811 30.5351 66.5058 30.5351 66.387C30.5351 66.2979 30.4747 66.2384 30.4747 66.1493C30.4747 66.0305 30.5653 65.8522 30.5653 65.7334ZM31.0484 55.9598C31.0484 56.0489 31.1088 56.1083 31.2296 56.1083L31.29 56.0489C31.29 55.93 31.2598 55.8112 31.2598 55.7221L31.3806 55.6033L31.5014 55.7221L31.5617 55.6627C31.5617 55.5736 31.5316 55.4547 31.5316 55.3953C31.5316 55.3359 32.3166 54.1476 32.4978 53.4346L32.4676 53.3752C32.4676 53.3158 32.4978 53.0782 32.5884 53.0782L32.7091 53.1079C32.7695 53.1079 32.8299 52.8999 32.8601 52.8405L32.7997 52.7514L32.7695 52.8108L32.7393 52.7217C32.7695 52.6326 32.9507 52.6623 32.9507 52.5434L32.9205 52.484C32.9205 52.1275 33.2224 52.0087 33.2224 51.6522L33.1922 51.5928C33.2224 51.5334 33.3734 51.5334 33.4338 51.5037L33.4036 51.4146C33.4338 51.3254 33.5546 51.2066 33.5546 51.1175C33.5546 51.0581 33.4942 51.0284 33.4942 50.969C33.4942 50.8204 33.6754 50.8798 33.6754 50.7907C33.6754 50.3451 33.7961 50.4936 33.7961 50.4045C33.7659 50.3451 33.7357 50.2857 33.7357 50.2263C33.7357 49.8698 34.5208 48.533 34.5208 47.612C34.5208 47.5823 34.5208 47.5229 34.4604 47.5229C34.3396 47.7606 34.249 48.1171 34.0075 48.2656C34.0075 48.325 34.0377 48.325 34.0377 48.3844C34.0377 48.8003 33.3734 49.3648 33.3432 49.8104C33.0413 50.3451 32.7091 50.8501 32.6185 51.4443C32.5582 52.0087 31.7731 53.3455 31.7731 53.702V53.9397C31.5617 54.207 31.2296 55.5141 31.0484 55.9598ZM32.0751 55.3062C32.2562 55.3062 32.5582 54.3556 32.6789 54.1476C32.7997 53.9397 32.7091 53.91 32.7997 53.702C32.5582 53.91 31.9845 54.9794 31.9845 55.2468L32.0751 55.3062ZM31.139 62.5845C31.1088 62.4953 31.1088 62.0794 31.0182 62.0794L30.9579 62.2577L31.0182 62.3468C30.9579 62.4359 30.9277 62.525 30.8975 62.6142C30.9579 62.8221 31.0484 63.0301 31.0484 63.238C31.0484 63.3271 30.9579 63.3568 30.9579 63.4163H31.0182C31.1088 63.3271 31.1994 63.2083 31.1994 63.0895C31.1994 62.9706 31.1088 62.8815 31.1088 62.7627C31.1088 62.7033 31.1088 62.6142 31.139 62.5845ZM31.2296 64.9907V64.8719C31.2296 64.7234 31.2296 64.5154 31.1088 64.5154L31.139 64.5451C31.0484 64.7531 31.0786 64.9907 30.9277 65.1987C30.9277 65.2581 30.9277 65.3175 30.9579 65.3472C31.1088 65.2581 31.2296 65.169 31.2296 64.9907ZM31.0182 66.387C30.9579 66.3573 30.9579 66.2681 30.9579 66.2384C30.9579 66.1196 31.0182 66.0008 31.1088 65.882C31.1088 65.7928 31.0786 65.674 31.0182 65.6146C30.9579 65.6443 30.8371 65.674 30.8371 65.7334C30.8975 65.7928 30.9579 65.882 30.9579 65.9414C30.8371 66.0602 30.8975 66.2681 30.8069 66.387C30.8069 66.4464 30.8371 66.4464 30.8673 66.4464H30.9579L31.0182 66.387ZM31.3806 63.8322C31.3806 63.8025 31.3806 63.6836 31.29 63.6836C31.2296 63.6836 31.0182 63.6836 31.0182 63.7727L31.0484 63.8322C30.9579 63.8619 30.9579 63.951 30.9579 64.0104L31.1088 63.9213L31.139 63.951C31.2296 63.951 31.29 63.8916 31.3806 63.8322ZM30.9277 56.3757L30.8371 56.6727C30.9277 56.643 31.0484 56.6133 31.0786 56.5242L30.9277 56.3757ZM31.1994 64.3372V64.3075C31.1994 64.2481 31.2296 64.1886 31.29 64.1292L31.2296 64.0698C31.1692 64.0995 31.1088 64.1589 31.1088 64.2184L31.1994 64.3372ZM30.9277 61.6932L30.9579 61.7824L31.0182 61.7229L30.9579 61.6338L30.9277 61.6932ZM31.7731 55.6627C31.8335 55.6033 31.8033 55.5736 31.8939 55.5736C31.8939 55.5736 31.8939 55.5439 31.8637 55.5439C31.8033 55.5736 31.7731 55.6033 31.7731 55.6627ZM31.8939 56.346V56.4054C31.8939 56.4351 31.8939 56.4945 31.8939 56.4648V56.346ZM31.3806 63.4757V63.4163V63.5054V63.4757ZM30.2936 53.2861C30.2634 53.3158 30.203 53.3158 30.203 53.3752C30.2332 53.3455 30.2936 53.3158 30.2936 53.2861ZM31.4108 56.3162C31.4712 56.2865 31.5014 56.2271 31.5014 56.1677C31.5014 56.2271 31.441 56.2865 31.4108 56.3162ZM31.9845 56.2271V56.1974H31.9543L31.9845 56.2271ZM34.702 48.2062V48.2656C34.702 48.2359 34.7322 48.2359 34.7322 48.2062H34.702ZM32.0449 56.1974V56.1677C32.0449 56.1974 32.0449 56.1974 31.9845 56.1974H32.0449ZM42.3955 58.7225L42.4559 58.7819C42.1539 59.2275 41.6708 59.6732 41.6708 60.2079C41.6708 60.802 40.8254 62.02 40.4027 62.4953L40.4329 62.5845C39.9799 63.2677 38.9533 65.1393 37.8965 65.1393C37.3228 65.1393 37.1719 64.7234 36.8095 64.6045C36.0849 64.3669 36.0849 61.9903 36.0849 61.3665C36.0849 60.9506 36.1151 60.5347 36.266 60.1188C36.266 59.9702 36.4472 59.5246 36.4472 59.4652C36.4472 59.4355 36.417 59.3761 36.3868 59.3761C36.3868 58.9899 36.5076 58.6334 36.568 58.1878V58.1581L36.6888 57.8313C36.7793 57.5937 36.8095 57.356 36.8095 57.1183C36.8095 56.6727 37.0511 56.1677 37.1719 55.7221C37.3832 54.9794 37.504 54.1476 37.9267 53.4346C37.9267 53.2564 37.1719 53.2564 37.0511 53.2564C36.9303 53.2564 36.6586 53.2861 36.417 53.2861C36.0245 53.2861 35.6621 53.197 35.6621 52.8405C35.6621 52.7217 35.9943 52.7217 36.0547 52.7217H36.6586C37.3832 52.7217 38.3796 52.6623 38.44 52.1572C38.5004 51.6225 39.0137 51.0581 39.0741 50.3748C39.1647 49.7212 39.6478 49.0974 39.7988 48.4438C39.8592 48.1468 40.2517 47.6715 40.2517 47.4932C40.2517 47.2556 40.3423 46.8397 40.614 46.8397C41.2481 46.8397 41.9728 47.6715 41.9728 48.2062C41.9728 48.4438 41.6708 48.5627 41.6708 48.9192C41.1575 49.9292 40.916 51.0878 40.3725 52.0087L40.4932 52.1275C40.7952 52.1275 41.0367 52.1275 41.3387 52.1869C41.3387 52.3652 40.4932 52.5434 40.3725 52.6028C40.0403 52.7514 39.527 54.1476 39.527 54.5041C39.527 54.5041 39.5874 54.5338 39.5874 54.5635C39.2855 54.8309 38.3796 57.9501 38.2891 58.4552C38.2287 58.8116 38.2589 60.0296 37.9871 60.297C37.9871 61.307 37.8059 62.3468 37.8059 63.3568V63.446C37.8059 63.5351 37.8059 63.5648 37.9569 63.6539H37.9267C37.9267 63.6836 39.0439 62.9409 40.2215 61.1882C40.2517 61.1585 40.5536 60.6238 40.8858 60.6238H40.9764C41.0367 60.6238 41.0669 60.5941 41.0669 60.4455C41.0065 60.4455 40.916 60.4455 40.8858 60.5347L40.8254 60.505C40.8254 60.0593 41.8218 59.8514 41.8218 59.2573C41.8218 59.1384 41.8218 59.1384 41.8822 59.1384H41.9124C41.9426 59.1384 41.9728 59.1384 42.0332 59.0196H41.9728C42.1237 58.9305 42.1539 58.7225 42.3955 58.7225ZM37.3832 61.1288L37.4134 61.01L37.353 60.9209L37.1719 61.0397C37.0511 61.0397 37.0511 60.7129 37.0511 60.6535C37.0511 60.4455 37.1115 60.3861 37.1719 60.2079C37.1417 60.1485 37.1115 60.0891 37.1115 60.0593C37.1115 59.8811 37.2926 59.8811 37.2926 59.6732C37.2926 59.584 37.2624 59.4949 37.1719 59.4058C37.0813 59.4058 36.7793 60.7129 36.7793 61.1288C36.8095 61.1585 36.8699 61.2773 36.9303 61.3368C36.8699 61.3962 36.7491 61.6338 36.7491 61.6338C36.7491 61.9309 36.7793 62.1983 36.7793 62.4656C36.6888 62.5845 36.6888 62.7924 36.6888 62.9112V62.9706C36.7491 63.0598 36.7793 63.5648 36.9303 63.5648C36.9303 63.5351 36.9605 63.4163 36.9907 63.4163C37.0511 63.5351 37.0813 63.6539 37.1719 63.7727C37.2926 63.7727 37.3228 63.7727 37.3228 63.6539C37.2624 63.6242 37.1719 63.5648 37.1719 63.5054C37.2624 63.4757 37.353 63.3865 37.353 63.2974C37.353 63.0895 37.2021 62.9112 37.2021 62.7033C37.2021 62.4656 37.3228 62.1983 37.3228 61.9309C37.3228 61.7824 37.2926 61.6041 37.2926 61.4556C37.2926 61.3368 37.3228 61.2179 37.3832 61.1288ZM37.7456 57.3263C37.8059 57.2669 37.9569 56.851 37.9569 56.7619C37.9569 56.4054 38.2287 56.2865 38.2287 56.2271C38.1381 56.138 38.1079 56.0489 38.1079 55.93C38.1683 55.9003 38.1683 55.8409 38.1683 55.8112C38.1683 55.7518 38.1683 55.6924 38.1381 55.6924C37.8965 55.6924 37.9267 56.4351 37.7758 56.643C37.7758 56.7024 37.8059 56.7619 37.8059 56.851C37.8059 56.9995 37.4134 57.5045 37.4134 57.5937C37.4134 57.6531 37.4436 57.6828 37.4436 57.7125C37.2021 57.8313 37.1719 58.6631 37.1719 58.8116C37.1719 58.8711 37.2021 58.9305 37.2021 58.9899L37.0813 59.1384C37.1115 59.2275 37.1719 59.287 37.2624 59.287C37.2624 59.287 37.7154 58.2769 37.7154 57.8907L37.6852 57.8313L37.8059 57.5045C37.7758 57.4748 37.7456 57.3857 37.7456 57.3263ZM37.1115 62.4359C37.0813 62.4656 37.0813 62.525 37.0813 62.5845C37.0813 62.6736 37.1115 62.7627 37.1115 62.8518C37.1115 62.9409 37.0813 63.0004 37.0209 63.0004C37.0209 63.0004 36.9303 63.0004 36.9303 62.9706C36.9303 62.6736 37.0209 62.3765 37.0209 62.0794L37.1115 62.1983V62.4359ZM38.7118 54.1476C38.591 54.1476 38.5004 54.3259 38.4702 54.3853L38.5608 54.5635L38.9231 54.2664C38.9231 54.1773 38.7722 54.1476 38.7118 54.1476ZM42.8182 58.069C42.9692 57.9501 43.09 57.7422 43.2711 57.6234L43.3013 57.7125C43.2409 57.8313 43.0598 58.1878 42.9088 58.1878C42.8484 58.1878 42.8484 58.1878 42.8484 58.1581C42.8484 58.1284 42.8484 58.0987 42.8182 58.069ZM37.2021 57.4451C37.1719 57.4748 37.1115 57.5639 37.0511 57.6234V57.7422C37.0511 57.8016 37.0511 57.9204 37.1417 57.9204C37.2021 57.8313 37.2624 57.5937 37.2624 57.4748L37.2021 57.4451ZM39.4666 62.9112C39.4364 62.8221 39.4364 62.7627 39.3761 62.7033C39.3157 62.7033 39.2855 62.7627 39.2855 62.8221L39.3157 62.9409L39.4666 62.9112ZM38.8024 53.5832L38.742 53.6723C38.742 53.7317 38.7722 53.7614 38.8024 53.7911L38.9231 53.7317L38.8627 53.5535L38.8024 53.5832ZM37.1115 61.3368C37.0511 61.2773 37.0511 61.2476 36.9907 61.1882L37.0511 61.1585L37.1719 61.2179V61.2773C37.1719 61.307 37.1719 61.3368 37.1417 61.3368H37.1115ZM37.7758 55.4844C37.7154 55.4844 37.7154 55.6033 37.7154 55.6627V55.6924L37.8361 55.5736C37.8361 55.5736 37.8361 55.4844 37.7758 55.4844ZM37.504 59.4949C37.5644 59.4949 37.5946 59.5246 37.5946 59.5246L37.655 59.4652L37.6248 59.4058C37.5644 59.4058 37.504 59.4058 37.504 59.4949ZM37.3228 60.8317L37.3832 60.802L37.3228 60.6832L37.2624 60.802L37.3228 60.8317ZM38.3796 54.8309L38.44 54.6823L38.3494 54.8012L38.3796 54.8309ZM37.8059 58.5443L37.7758 58.4849L37.7154 58.5443V58.6037C37.7456 58.574 37.7758 58.5443 37.8059 58.5443ZM38.3796 54.9794L38.3193 55.0685L38.3494 55.128L38.3796 55.0982V54.9794ZM36.9303 63.8916L37.0209 63.8322L36.9303 63.8025L36.8699 63.8619L36.9303 63.8916ZM43.5731 57.3263L43.6335 57.356C43.6335 57.3857 43.6033 57.4154 43.5731 57.4154L43.5127 57.356L43.5731 57.3263ZM38.4098 53.6426V53.6723H38.5004C38.5004 53.6129 38.5004 53.5832 38.44 53.5832L38.4098 53.6426ZM36.6888 59.0196L36.7491 58.9899L36.6586 58.9305V58.9602L36.6888 59.0196ZM37.3832 60.4455C37.3832 60.4455 37.3832 60.4752 37.4134 60.4752H37.4436C37.4436 60.4455 37.4436 60.4158 37.4134 60.3861L37.3832 60.4455ZM38.0475 57.5045L38.0777 57.4748C38.0777 57.4451 38.0475 57.4451 38.0173 57.4154C38.0173 57.4748 38.0173 57.4748 38.0475 57.5045ZM40.7348 61.515L40.765 61.4853H40.6744L40.7348 61.515ZM43.3617 57.5937C43.3315 57.5937 43.3013 57.6234 43.2711 57.6234C43.3013 57.5937 43.3315 57.5937 43.3617 57.5937ZM37.5644 59.792L37.5946 59.7623C37.5946 59.7326 37.5946 59.7326 37.5644 59.7326V59.792ZM38.742 53.9991C38.7118 53.9991 38.7118 54.0288 38.6816 54.0288H38.7118C38.7118 54.0288 38.742 54.0288 38.742 53.9991ZM47.4863 56.6727C47.607 56.4945 47.6976 56.2865 47.8184 56.1083L47.8788 55.9895L47.8184 55.9598C47.909 55.8706 47.9694 55.7221 48.0902 55.6924L48.0298 55.6033C48.0902 55.4547 48.4223 55.1577 48.4223 54.9794V54.9497C48.5129 54.8903 48.7544 54.6526 48.7544 54.5338H48.7242C48.694 54.5338 48.694 54.5338 48.694 54.5041C48.694 54.5041 48.9658 54.1476 49.0262 53.9991C49.0262 53.6723 49.5395 53.5535 49.5395 53.2267H49.4791C49.6301 53.1079 50.234 52.484 50.2641 52.3949L50.234 52.3652V52.3949L50.1132 52.3652L50.0226 52.3949C50.0226 52.1869 50.2641 52.0384 50.4453 51.979L50.4151 51.9493C50.5661 51.7116 50.7775 51.4146 51.1096 51.4146L51.1398 51.4443H51.1096C51.1398 51.4443 51.1398 51.474 51.17 51.474C51.4115 51.474 51.6531 51.3551 51.8946 51.3551C52.2268 51.3551 53.6761 51.5037 53.6761 52.5137C53.5855 52.6028 53.5855 52.692 53.5855 52.7811L53.6157 52.8108L53.6761 52.692C53.7365 52.8108 53.7365 52.8999 53.7365 52.989C53.7365 53.1376 53.7063 53.3158 53.7063 53.4644C53.7063 53.5535 53.7667 53.6723 53.7667 53.7911C53.7667 54.2664 53.6459 54.6229 53.5251 55.0982C53.3742 55.5439 52.0758 57.9204 51.2908 57.9204C51.17 57.9204 51.1096 57.8907 51.0492 57.8313C51.019 57.861 50.9888 57.8907 50.9586 57.8907C50.8378 57.8907 50.7473 57.8313 50.6869 57.7719L50.7171 57.7125C50.6265 57.6531 50.5057 57.6531 50.4151 57.6531L50.3547 57.5937L50.3245 57.6234C50.2641 57.3857 49.9018 57.2669 49.9018 57.1778C49.9018 57.1183 49.9622 57.0589 49.9924 57.0292C50.083 57.0589 50.1736 57.1183 50.2641 57.148C50.6265 57.148 50.9284 56.7024 51.0492 56.4054C51.4115 56.2865 52.106 54.9794 52.106 54.6229L52.0456 54.4744C52.0456 54.4744 52.3174 53.6129 52.257 53.6723C52.3174 53.4941 52.3174 53.3158 52.3476 53.1376V52.989C52.3476 52.8405 52.4381 52.7217 52.4381 52.6028C52.4381 52.5137 52.3778 52.484 52.3778 52.3652L52.408 52.3355C52.3778 52.2761 52.3476 52.2167 52.257 52.2167C52.2268 52.2167 52.106 52.2464 52.0758 52.2464C51.2908 52.8702 49.8716 55.0982 49.8716 55.0982C49.8716 55.128 49.9018 55.1577 49.9018 55.1874C49.9018 55.4547 49.2979 56.1677 49.2979 56.3757C48.9356 56.9104 48.694 57.5342 48.5733 58.1581C48.3619 59.0493 47.9996 60.0593 47.9996 60.9803C48.3317 61.2773 48.0902 61.6635 48.3619 61.9606C49.147 62.7033 49.3885 63.1192 50.7473 63.1192C51.4115 63.1192 52.3174 62.5845 52.7401 62.1686C52.9515 62.1686 53.6459 61.1882 53.7667 61.1585C53.7667 61.2773 53.7667 61.307 53.7365 61.3962L53.7969 61.515L53.7063 61.6635L53.7667 61.7229L53.7969 61.6338L53.9781 61.7229C53.9479 61.7824 53.9479 61.8715 53.9479 61.9309L54.0686 61.9606L54.129 61.8715L54.1592 61.9012C54.0686 61.9903 53.9479 62.1686 53.9479 62.2874L54.0083 62.3171L54.1592 62.228L53.9781 62.5845C53.9781 62.5845 54.0083 62.6439 54.0083 62.6736C54.0083 63.1192 52.257 63.951 51.8041 63.951C51.3511 63.951 50.8982 64.0401 50.4453 64.0401C49.9018 64.0401 48.2411 63.5351 47.7278 63.0895C47.0333 62.4656 46.3691 61.7824 46.3691 61.1288C46.3691 61.0397 46.4295 60.9209 46.4295 60.8317C46.4295 60.802 46.3993 60.7723 46.3993 60.7129L46.4597 60.6535C46.4597 60.5644 46.4295 60.5347 46.4295 60.4752C46.4295 59.8514 46.6408 59.1384 46.7616 58.5146C47.0032 58.4255 47.0333 58.2769 47.0333 58.069C47.0333 58.0393 47.0032 58.0096 46.973 58.0096C47.0032 57.9204 47.0635 56.8807 47.4863 56.6727ZM52.5589 53.2267H52.5287L52.5589 53.197C52.4683 53.2267 52.4381 53.2564 52.4381 53.3158C52.4381 53.3158 52.4381 53.3455 52.4683 53.4049C52.4381 53.5535 52.3778 53.7614 52.2872 53.91L52.3476 54.0288C52.5589 53.91 52.4683 53.4346 52.5589 53.2267ZM48.7242 54.1476L48.8148 54.0288C48.8148 53.9991 48.7846 53.9397 48.7846 53.91C48.7846 53.7911 48.9054 53.7317 48.996 53.6723C48.996 53.7317 49.0262 53.7614 49.0262 53.7911C49.0262 53.91 48.7544 54.207 48.6638 54.2962L48.6337 54.1773C48.6337 54.1476 48.6638 54.1179 48.694 54.0882L48.7242 54.1476ZM49.4187 53.2564C49.3885 53.2564 49.3583 53.2564 49.3583 53.2267V53.197C49.4187 53.0782 49.5999 52.7514 49.7206 52.7514V52.8405C49.6905 52.9296 49.4791 53.2564 49.4187 53.2564ZM52.3476 54.1773V54.0882C52.2872 54.1476 52.257 54.207 52.2268 54.2664L52.257 54.3853C52.3476 54.3556 52.3476 54.2664 52.3476 54.1773ZM49.9924 52.4246L50.0528 52.5137C49.9924 52.5137 49.8112 52.5137 49.8112 52.6028L49.781 52.5731C49.8112 52.5137 49.932 52.4543 49.9924 52.4246ZM49.1168 53.5832C49.1168 53.5238 49.147 53.4644 49.2375 53.4346L49.2677 53.4644C49.2677 53.5238 49.2073 53.5832 49.1168 53.5832ZM50.3849 57.6531L50.4151 57.7125L50.3245 57.6828C50.3547 57.6531 50.3547 57.6531 50.3849 57.6531ZM48.5733 54.5041H48.5129C48.5129 54.4744 48.5129 54.4744 48.5733 54.4447V54.5041ZM48.7544 54.0585C48.7242 54.0882 48.7242 54.0882 48.694 54.0882C48.7242 54.0882 48.7242 54.0882 48.7242 54.0585H48.7544ZM49.9924 52.3949H50.0226C49.9924 52.3949 49.9924 52.3949 49.9924 52.4246V52.3949ZM58.1992 58.6928L58.169 58.6631C58.3804 58.5443 58.5918 58.3066 58.6823 58.069L58.6521 58.0393C58.6823 57.7719 59.0447 57.4451 59.256 57.2669L59.2258 57.2075L59.256 57.148L59.3164 57.2075L59.4674 56.9995L59.407 56.9401L59.4976 56.851C59.4976 56.4351 60.4638 55.4547 60.8261 55.2171C60.9469 55.1874 61.0677 55.128 61.1885 55.128L61.2187 55.1577C61.3394 55.1577 61.3998 55.0091 61.5508 55.0091V55.0388C61.6112 54.9794 61.732 54.92 61.8829 54.92V54.9794L62.0037 54.92L62.1547 54.9497L62.2453 54.92C62.2755 55.0982 62.3963 55.0685 62.3963 55.2468C62.3963 55.3953 62.3057 55.6033 62.2755 55.7518V55.7815C62.0037 56.3757 61.6414 57.2075 61.5508 57.8313C61.4904 58.4255 61.43 59.1087 61.2187 59.6434C61.2187 59.6732 61.2187 59.7326 61.1583 59.7326C61.0677 59.7326 61.0677 60.0593 61.0677 60.1188C61.0677 60.505 60.9469 60.8317 60.9469 61.2179C60.9469 61.3962 61.0073 62.3468 61.3394 62.3468L61.5508 62.1983C61.6414 62.1983 61.581 62.3468 61.7018 62.3468C61.7018 62.4359 61.6112 62.3765 61.581 62.4953C61.6112 62.525 61.6716 62.5547 61.6716 62.6142L61.6112 62.7627V62.8221C61.5508 62.8221 61.4904 62.9112 61.4904 62.9409L61.5206 62.9706C61.5206 63.0598 61.3998 63.0598 61.3394 63.0895L61.3093 63.0301L61.1583 63.1192H61.0677C60.9771 63.1192 60.8865 63.1786 60.796 63.1786C60.6752 63.1192 60.6148 63.0598 60.5242 63.0598L60.494 63.0895C60.3128 63.0598 60.0109 62.8221 59.8901 62.733C59.5278 62.5547 59.4976 62.228 59.4976 61.8715C59.4976 61.6932 59.3466 61.515 59.3466 61.3368C59.3466 61.0397 59.4976 60.6832 59.4976 60.3267L59.4674 60.297L59.4976 60.2079C59.4976 59.7623 59.6184 59.4949 59.6184 59.1087C59.6184 59.079 59.558 58.9899 59.558 58.9602C59.5278 59.2573 58.9541 59.6137 58.8635 59.8811C58.622 60.2079 58.3804 60.505 58.169 60.802C57.3236 61.3962 57.5048 61.4853 56.9009 62.02C56.6895 62.228 56.4178 62.3765 56.1762 62.5547V62.525C55.6629 62.525 55.2704 62.7924 54.7571 62.7924C54.7269 62.7924 54.5759 62.7033 54.5155 62.7033L54.3947 62.733C53.972 62.2577 53.7607 61.7824 53.7607 61.1882C53.7607 60.4455 54.0022 59.7029 54.274 58.9899C54.5155 58.3363 54.8477 57.7125 55.2402 57.1183C55.361 56.9104 55.5119 56.7024 55.6327 56.5242L55.7837 56.2865C55.7837 56.2865 55.9045 56.2568 55.9045 56.2271L56.297 55.425C56.297 55.3953 56.5385 55.1874 56.5385 55.1577C56.5385 55.0388 58.0785 53.9397 58.32 53.7911C58.622 53.7911 58.9239 53.6723 59.1655 53.5535C59.1655 53.5535 59.4976 53.4049 59.558 53.4049C59.5882 53.4049 59.558 53.4049 59.558 53.4346C59.6486 53.4049 59.9203 53.3455 60.1619 53.3455C60.2223 53.3455 60.2826 53.3455 60.3128 53.3752L60.2826 53.3158C60.8261 53.3158 61.3696 53.8208 61.7018 54.1773C61.732 54.2367 61.7622 54.2664 61.8528 54.2664L61.8226 54.2962L61.8829 54.3853V54.415L61.732 54.3853L61.6716 54.4447C61.6716 54.5932 61.8829 54.6229 61.8829 54.7121L61.732 54.6229L61.5508 54.6823C61.5508 54.8012 61.732 54.8309 61.8829 54.8606C61.2187 54.7121 61.1583 54.7715 60.5846 54.415C60.3732 54.2962 60.1619 53.9694 59.9203 53.9694C59.8901 53.9694 59.3466 54.1179 59.2862 54.1476C59.3768 54.0585 59.4976 54.0288 59.6184 53.9694C59.4674 53.9694 58.7125 54.3259 58.7125 54.4744H58.8635C58.8333 54.6229 58.5012 55.0091 58.32 55.0388L58.3804 55.0982L58.32 55.128L58.4106 55.2171C58.1992 55.3656 57.8973 55.6924 57.8973 55.93C57.7463 56.0489 57.2028 56.9995 57.1726 57.1778C56.9009 57.3263 56.5989 57.9798 56.5083 58.2769V58.2472C56.0252 58.7819 55.2402 60.8614 55.1798 61.6338C55.2402 61.6932 55.1496 61.7527 55.2704 61.7527C55.5119 61.4853 56.0252 61.01 56.4178 60.9209H56.5385L56.5989 60.802H56.5687C56.5989 60.7129 56.8103 60.5347 56.8405 60.4455V60.4752C56.8405 60.2376 57.0217 59.9702 57.2934 59.8811H57.2632C57.2934 59.7326 57.6557 59.7029 57.6557 59.4355L57.6255 59.4058L57.7765 59.3167H57.7463C57.7765 59.1087 57.9577 58.9008 58.169 58.7819L58.1992 58.6928ZM58.169 54.9794C58.2898 54.8309 58.5616 54.2962 58.8333 54.2664C58.6823 54.5338 58.32 54.7418 58.169 55.0091V54.9794ZM58.8937 54.4447L58.8635 54.415C58.8937 54.3853 58.9541 54.2962 58.9843 54.2664L59.0447 54.3259C59.0447 54.3853 58.9541 54.415 58.8937 54.4447ZM59.2862 54.1476C59.2258 54.1773 59.1655 54.2367 59.0749 54.2664C59.1353 54.207 59.2258 54.1476 59.2862 54.1476ZM55.3912 57.0589C55.4214 57.0292 55.4515 56.9995 55.4515 56.9698C55.3912 56.9698 55.3912 57.0292 55.3912 57.0589ZM61.9131 54.8309H61.8528C61.732 54.8309 61.6414 54.8012 61.6112 54.7715C61.7018 54.7715 61.8226 54.8309 61.9131 54.8309ZM56.6895 60.6832H56.7499V60.6535L56.6895 60.6832ZM59.256 57.5342H59.3164L59.3466 57.5045C59.3164 57.5045 59.2862 57.5045 59.256 57.5342ZM56.6895 60.6832L56.6593 60.7426V60.7723C56.6895 60.7426 56.6895 60.7129 56.6895 60.6832ZM59.709 60.0891V60.1485L59.7391 60.1188L59.709 60.0891ZM59.3164 57.0886H59.2862L59.3164 57.0589C59.3466 57.0589 59.3466 57.0589 59.3466 57.0292C59.3466 57.0589 59.3466 57.0589 59.3164 57.0886ZM59.256 57.1183C59.256 57.0886 59.256 57.0886 59.2862 57.0886C59.2862 57.1183 59.2862 57.1183 59.256 57.1183ZM56.4178 60.8911L56.5083 60.8614C56.4782 60.8911 56.4782 60.8911 56.4178 60.8911ZM65.1077 57.1183C65.1077 57.5937 65.2587 58.574 65.7116 58.9899C65.8928 59.1978 66.5872 59.8514 66.9194 59.8514C67.0703 59.8514 72.8677 56.0786 73.5923 55.5736C73.4716 55.6924 73.1394 56.0192 73.079 56.1677H73.1092L72.4449 56.7024C72.7167 56.4945 73.23 56.138 73.2602 56.138C73.1998 56.8807 67.6742 59.8811 67.4327 60.4752C67.6138 60.6832 67.946 61.2773 68.0366 61.515C68.2479 61.7824 68.6103 62.1388 68.6103 62.4656C68.6103 62.5845 68.5801 62.6439 68.5499 62.7033L68.6103 62.8815C68.5801 63.1489 68.4291 63.5054 68.1272 63.6242H68.1573C67.9158 63.7727 67.7346 64.0104 67.5836 64.2481H67.6138C67.1609 64.3966 66.5268 65.0799 66.2853 65.1393L66.3155 65.1096C65.772 65.5552 64.8058 66.0305 64.0509 66.0305C63.749 66.0305 63.3262 65.9711 63.1451 65.7631H63.1753C63.0545 65.6146 62.8129 65.4066 62.8129 65.1987C62.8129 63.9807 63.5678 63.8916 63.7188 63.4163C63.7792 63.1192 64.0509 62.9112 64.2321 62.6439C64.4736 62.2874 64.5642 61.9903 64.8662 61.6635C65.1077 61.3962 65.8928 60.7723 65.8928 60.4158C65.8928 60.1782 65.5002 59.9999 65.3493 59.8514C65.0473 59.5543 64.383 58.4255 64.2019 58.4255H64.1717C64.1113 57.9798 63.8094 57.5937 63.8094 56.8807C63.8094 56.4945 63.8395 55.6924 64.1113 55.3953L64.0811 55.3062C64.2019 54.1476 64.534 54.5041 64.5944 54.1179C64.6246 53.7911 65.8928 52.2464 66.2551 52.2464L66.3759 52.3058C67.2213 52.3058 66.8892 51.8899 67.9158 51.8899C68.7008 51.8899 69.3349 51.9196 69.9086 52.3949C70.5729 52.9296 70.2709 53.1376 70.6937 53.5535L70.6333 53.6723L70.7239 53.8208C70.5427 54.6229 70.3615 56.0192 69.9388 56.4054C69.4859 56.851 69.1538 56.9104 68.6103 57.1183C68.3989 57.1183 67.946 56.8213 67.946 56.6133C67.946 56.5539 68.0064 56.4945 68.0366 56.4648L68.0064 56.4054C68.0668 56.0489 68.2177 55.93 68.3687 55.6627V55.5736C68.4291 55.128 68.8518 54.6526 68.882 54.207H68.8518C68.9122 54.0585 68.9424 53.91 68.9424 53.7317C68.9424 53.3158 68.6707 53.1376 68.6103 52.8405C68.5197 52.7514 68.3385 52.484 68.2177 52.484C68.0366 52.484 67.4025 53.0782 67.1609 53.197C66.8892 53.2861 65.8928 55.0091 65.5304 55.3359L65.5606 55.3656C65.4398 55.5736 65.1077 56.643 65.1077 57.1183ZM67.1609 62.228C67.1005 62.0497 66.5872 61.1288 66.4061 61.1288C66.1947 61.1288 65.923 61.9903 65.621 62.228L65.7116 62.1983C65.6814 62.4062 65.5606 63.3568 65.1681 63.3568L65.2285 63.3866C65.1681 63.743 65.0775 63.4757 65.0775 64.0698C65.0775 64.1589 64.8963 64.3075 64.8963 64.3966C64.8963 64.4263 64.9567 64.456 65.0171 64.456C65.4398 64.0698 66.0437 63.6836 66.4061 63.238L66.3759 63.2974C66.3759 63.2974 67.0401 62.7033 67.1609 62.228ZM66.0437 60.5644C65.8626 60.6238 65.7418 61.0694 65.7116 61.2179C65.5606 61.3665 65.3493 61.515 65.1681 61.6338C65.1077 62.1983 64.383 62.5845 64.383 63.1786L64.4434 63.2974C64.7152 63.2677 65.1681 62.1983 65.2285 62.1983V62.228C65.4398 61.307 66.1041 61.5744 66.2249 61.0397C66.1343 60.8911 66.2249 60.6832 66.0437 60.5644ZM64.9567 65.1987L65.0473 65.2284L65.8324 64.6937V64.7234C65.923 64.5748 66.1041 64.6343 66.2249 64.3966L66.1947 64.3669C65.923 64.3669 65.1681 65.0204 64.9567 65.1987ZM64.6548 64.8125L64.7454 64.8422C64.836 64.8422 64.8963 64.7234 64.8963 64.664C64.7756 64.664 64.7152 64.6937 64.6548 64.8125ZM64.9567 65.1987C64.9265 65.1987 64.8963 65.1987 64.8662 65.2284C64.8963 65.2284 64.9265 65.2284 64.9567 65.1987ZM66.4061 63.238L66.4665 63.1786C66.4665 63.2083 66.4363 63.238 66.4061 63.238ZM76.0924 46.4832L76.1226 46.5129C76.2434 46.5129 76.3642 46.4535 76.4246 46.4535C77.0285 46.4535 77.4512 47.4338 77.4512 47.4932C77.4512 47.8497 77.2096 48.2359 77.0285 48.533C76.8473 49.0974 76.5152 49.6024 76.2736 50.1372C75.9717 50.8501 75.8207 51.7116 75.4282 52.3949C74.9148 53.2267 75.1564 54.207 74.5525 54.92C74.5525 55.0982 74.4015 55.3656 74.311 55.5736C74.1298 55.93 74.2204 56.5242 73.9788 56.7619L73.9184 56.851L73.9486 56.8807C73.9184 56.9698 73.858 57.0292 73.858 57.1183C73.858 57.1183 73.858 57.148 73.8882 57.1778C73.8278 57.5342 73.7373 57.8907 73.5863 58.2175L73.6165 58.3363C73.6165 58.366 73.2542 60.4455 73.1938 60.5644L73.224 60.6238C73.5863 60.6238 74.6431 58.9008 74.9148 58.6037C75.9716 57.5045 79.0515 53.6723 80.6216 53.6723C80.8027 53.6723 81.9199 54.1773 81.9199 54.2962C81.9199 54.5041 81.8596 54.7418 81.8596 54.9497C81.8596 56.1677 80.8027 57.6531 80.4404 58.9008C80.2291 59.6137 79.8365 60.297 79.7761 61.0397C79.7459 61.4556 79.5044 61.8418 79.4742 62.2577C79.444 62.8815 79.293 63.5945 79.293 64.0995C79.293 64.1886 79.3232 64.3075 79.3232 64.3966C79.3232 64.4857 79.2024 64.5451 79.1723 64.6343C79.293 64.9313 79.293 65.4363 79.293 65.7928C79.1421 66.1196 79.0817 66.4761 78.9005 66.8326C78.9005 66.9217 78.9609 66.9811 78.9609 67.0999C78.9609 67.1594 78.8703 67.2188 78.8099 67.2188C77.8739 67.2188 77.7229 65.1987 77.6021 64.6045C77.6021 64.5748 77.6323 64.5451 77.6323 64.5154C77.6323 64.456 77.5719 64.3966 77.5719 64.3372V63.2974V63.1786C77.5719 62.7924 77.572 61.1585 77.9645 60.9209C78.0249 60.8614 78.0853 60.7129 78.0853 60.6832C78.0853 60.5644 77.9343 60.6238 77.9343 60.505C78.206 59.9999 78.206 59.4355 78.4174 58.9008C79.0515 57.4451 79.7158 55.93 80.1687 54.415L80.1385 54.3556C79.9875 54.3853 79.4138 54.8606 79.2628 54.9794L79.2024 54.92L79.2628 54.7715C78.7797 54.8606 78.2362 55.8409 78.0551 55.8409C77.9041 55.93 77.7229 56.1974 77.6927 56.3162H77.5116C77.3002 56.3162 77.0587 56.9104 77.0587 57.0886C76.9379 57.5045 76.485 57.7125 76.3038 58.0987L76.3944 58.1878C76.5755 58.1878 76.9379 57.5937 77.0587 57.4154L77.119 57.3857C77.119 57.5937 76.7265 57.9798 76.6359 58.2175V58.3066C76.6359 58.574 76.2736 58.3363 76.2736 58.7819C76.2736 59.3761 74.5223 60.9209 74.5223 61.4259V61.4556C74.5223 61.7824 73.3447 62.9409 72.8012 62.9409C72.6201 62.9409 72.4691 62.7924 72.3785 62.7033L72.1068 62.4656L71.986 62.525C71.4727 62.525 71.3519 61.7824 71.3519 61.4259C71.3519 60.9209 71.4727 59.8811 71.7746 59.2275V59.1087L71.7142 58.9305C71.7142 58.7819 71.7746 58.5146 71.8652 58.366L71.835 58.3066C71.8652 58.069 72.137 57.9204 72.137 57.7125C72.0766 57.6531 72.0162 57.5937 72.0162 57.5045C72.0162 56.5836 72.8616 55.8409 72.8616 54.9497L72.8012 54.8309C72.8012 54.5041 72.922 54.1476 73.073 53.8803L73.224 53.5535C73.2542 53.5238 73.3145 53.4346 73.3145 53.4346L73.2844 53.2861L73.3447 53.1376L73.4353 53.1673C73.4957 53.1376 73.5863 52.7217 73.6165 52.6028L73.5863 52.484C73.5863 52.3949 73.6467 52.3355 73.7373 52.3058L73.7071 52.2464C73.8279 52.1572 73.858 51.8602 73.8882 51.7413L73.8278 51.6819L73.9788 51.5631C73.9788 50.9392 74.7639 50.256 74.7639 49.4242C74.7639 49.3945 75.3074 48.0576 75.3376 47.9685L75.3074 47.8497C75.3074 47.7309 75.5791 47.1367 75.6395 47.0179L75.7905 46.6614C75.8509 46.5723 75.9415 46.4832 76.0924 46.4832ZM78.4778 66.0305C78.4778 65.7334 78.357 65.4363 78.357 65.1393C78.357 65.0501 78.3872 64.961 78.3872 64.8422C78.3872 64.7531 78.2966 64.7234 78.2966 64.6045C78.2966 64.3669 78.3872 64.0698 78.3872 63.8025C78.357 63.7727 78.2966 63.6836 78.2966 63.6242C78.2966 62.9409 78.5684 62.4062 78.5684 61.8715L78.5986 61.8418C78.5986 61.515 78.7797 61.0991 78.8703 60.802L78.8401 60.7129C78.9307 60.5644 78.9609 60.3861 79.0515 60.2079L78.9609 60.1485C78.508 60.1485 78.2664 62.5547 78.2664 62.5547C78.2362 63.1192 78.1758 63.5945 78.1758 64.0698C78.1758 64.0698 78.1758 66.0305 78.4778 66.0305ZM77.8135 65.0502C77.8437 65.1096 77.8437 65.1987 77.8437 65.2878C77.8437 65.169 77.9041 64.8125 77.9645 64.7234C77.9645 64.664 77.9645 64.6045 77.9041 64.6045C77.9041 64.0401 77.9343 63.446 78.0853 62.9409C78.0853 62.8815 78.0551 62.8221 77.9645 62.7627C77.9645 61.9309 78.4476 61.1288 78.4476 60.3267C78.4476 60.2673 78.3872 60.2376 78.357 60.2376C78.357 60.2673 78.3872 60.3267 78.3872 60.3267C78.3872 60.4455 78.1758 60.7129 78.1154 60.8317C78.1154 60.8911 78.1758 60.9209 78.2362 60.9506L77.9645 61.515C78.0249 61.515 78.0249 61.6041 78.0249 61.6338C77.9343 61.7229 77.8135 62.1091 77.7833 62.228L77.8739 62.3468C77.8437 62.4062 77.7229 62.6736 77.7229 62.733C77.7229 62.8221 77.7833 62.8815 77.7833 62.9706C77.7833 63.2974 77.7229 63.5945 77.7229 63.8916C77.7229 64.1292 77.7833 64.8125 77.8739 64.9016C77.8739 64.961 77.8437 64.9907 77.8135 65.0502ZM76.8473 56.8807L76.9077 56.7916L76.8775 56.7321C76.6963 56.8807 75.2168 58.2769 75.1866 58.574C75.5791 58.574 75.6395 58.3363 75.7905 58.0987C75.9113 57.8313 76.9077 57.1778 76.9077 56.9995L76.8473 56.8807ZM78.7495 62.7627L78.7193 62.733C78.5382 63.0301 78.508 63.5054 78.508 63.8619V64.0995C78.508 64.1589 78.508 64.2481 78.5382 64.2778C78.508 64.456 78.508 64.6045 78.508 64.7828V65.5552L78.5986 65.5849C78.6288 65.4958 78.6288 65.4066 78.6288 65.2878C78.6288 65.0799 78.5986 64.8125 78.5986 64.6045C78.5986 64.3669 78.6288 64.0995 78.659 63.8322V63.5945C78.6288 63.5351 78.6288 63.5054 78.6288 63.446C78.6288 63.238 78.7495 62.9409 78.7495 62.7627ZM79.3232 59.1384H79.293L79.3836 59.0196L79.3232 58.9899C79.2025 59.2573 78.9609 59.6434 78.9609 59.9702V59.9999C79.1723 59.9999 79.293 59.287 79.3232 59.1384ZM72.8616 58.3066C72.8616 58.2769 72.8314 58.2175 72.8314 58.1878C72.5899 58.1878 72.6503 58.8116 72.5597 58.9602L72.6201 59.0196C72.7408 58.8414 72.8616 58.5146 72.8616 58.3066ZM72.3181 60.5347L72.3785 60.4752C72.137 60.8317 72.2577 61.1882 72.137 61.6338C72.2879 61.6338 72.3181 60.7129 72.3181 60.5347ZM72.3785 59.9405V59.9999L72.4993 59.9702C72.4993 59.9405 72.4691 59.9108 72.4691 59.8811C72.4691 59.792 72.5295 59.7326 72.5295 59.6434C72.5295 59.6137 72.5295 59.4652 72.4691 59.4652C72.3785 59.4652 72.3785 59.6137 72.3785 59.7326V59.9405ZM72.8314 57.8907L72.8918 57.9501C72.9824 57.9501 73.073 57.3857 73.073 57.2966L73.1032 57.2669C72.9824 57.2372 72.8616 57.8016 72.8314 57.8907ZM74.4317 53.2861L74.4015 53.3158C74.3713 53.3158 74.311 53.2861 74.2808 53.2861C74.1902 53.2861 74.0694 53.3752 73.9788 53.4346L74.1298 53.4644C74.2506 53.4644 74.2808 53.3752 74.4015 53.3752L74.4619 53.4346L74.5223 53.3158L74.4317 53.2861ZM73.5863 53.8208V53.8505C73.7373 53.7614 73.7675 53.5238 73.7976 53.4049L73.7675 53.3158C73.6467 53.4644 73.5863 53.6129 73.5863 53.8208ZM78.8703 54.8606C78.6589 55.0982 77.8739 55.5439 77.8739 55.7815C78.1758 55.4547 78.6288 55.2171 78.9005 54.8606H78.8703ZM78.8099 61.6338C78.8099 61.6932 78.8703 61.6932 78.9005 61.6932C78.9307 61.515 78.9911 61.3962 79.0515 61.2179V61.1585C78.9005 61.2773 78.8099 61.4853 78.8099 61.6338ZM72.9522 55.9003L72.922 55.8409C72.8012 55.9895 72.8012 56.0489 72.771 56.2271L72.8012 56.2568C72.8616 56.2568 72.922 55.9598 72.9522 55.9003ZM79.293 57.9204V57.9798C79.444 57.9798 79.4742 57.7422 79.5044 57.6531C79.5044 57.6531 79.4742 57.6234 79.444 57.6234C79.444 57.7125 79.293 57.8016 79.293 57.9204ZM73.7976 53.8208L73.858 53.8803C73.9184 53.8208 73.9788 53.7317 73.9788 53.6426V53.6129C73.858 53.6129 73.8278 53.7614 73.7976 53.8208ZM78.508 59.8514L78.5382 59.9405C78.5986 59.8514 78.6288 59.7326 78.659 59.6434L78.6288 59.6137C78.5382 59.6732 78.508 59.7623 78.508 59.8514ZM76.6359 57.4748C76.5151 57.5342 76.4548 57.5937 76.4548 57.7125H76.5152C76.6057 57.7125 76.6359 57.5639 76.6359 57.4748ZM72.7107 57.356L72.7409 57.3857C72.8012 57.2966 72.8616 57.1778 72.8616 57.0886C72.771 57.1183 72.7409 57.2372 72.7107 57.356ZM73.1938 56.4648L73.2542 56.5242L73.3447 56.346L73.3145 56.2865C73.224 56.346 73.1938 56.4054 73.1938 56.4648ZM71.9558 60.3267V60.2079C71.8954 60.297 71.8652 60.3861 71.835 60.4752L71.8652 60.505C71.8954 60.4455 71.9558 60.3861 71.9558 60.3267ZM73.4655 55.8409V55.7815C73.4353 55.8112 73.4051 55.8409 73.3145 55.8409L73.3447 55.9598C73.4353 55.93 73.4655 55.9003 73.4655 55.8409ZM78.3872 59.4652C78.357 59.4355 78.357 59.4355 78.2966 59.4355L78.2664 59.584C78.2664 59.6137 78.2966 59.6434 78.2966 59.7029C78.2966 59.6137 78.357 59.5246 78.3872 59.4652ZM77.8437 55.8112C77.7229 55.93 77.6323 56.0489 77.5418 56.1677C77.7229 56.1083 77.7531 55.93 77.8437 55.8112ZM79.2024 60.4158L79.1119 60.505L79.1421 60.5644L79.2326 60.4455L79.2024 60.4158ZM76.5453 58.3066L76.5152 58.2769C76.485 58.3066 76.4246 58.366 76.3944 58.4255H76.4246C76.485 58.4255 76.5453 58.366 76.5453 58.3066ZM79.444 58.8711V58.9008C79.4742 58.8414 79.5346 58.7819 79.5346 58.6928C79.4742 58.7522 79.444 58.7819 79.444 58.8711ZM71.8048 60.8317L71.8652 60.6535C71.835 60.6832 71.7746 60.6832 71.7746 60.7426C71.7746 60.7723 71.8048 60.802 71.8048 60.8317ZM73.073 56.1677L73.0126 56.2271C73.0126 56.2568 73.073 56.2865 73.073 56.3162L73.1334 56.2865L73.073 56.1677ZM77.1794 56.5242H77.119L77.0285 56.643C77.0888 56.643 77.1492 56.6133 77.1794 56.5242ZM72.4087 57.8313V57.7125C72.4087 57.7125 72.3785 57.7719 72.3181 57.8016L72.4087 57.8313ZM79.0817 60.7723L79.0515 60.8317V60.9209C79.0817 60.9209 79.1119 60.8911 79.1119 60.8614C79.1119 60.8317 79.0817 60.802 79.0817 60.7723ZM78.7193 59.3761V59.4058L78.7495 59.4652L78.7797 59.4355C78.7797 59.3761 78.7797 59.3761 78.7193 59.3761ZM73.7373 54.2664C73.7071 54.2962 73.6467 54.2367 73.6467 54.3556C73.7373 54.3556 73.7373 54.3259 73.7373 54.2664ZM72.6201 58.069C72.5597 58.1284 72.5295 58.1284 72.5295 58.1878C72.5899 58.1581 72.6201 58.1878 72.6201 58.069ZM73.5561 55.3359V55.3953C73.5561 55.425 73.5561 55.4547 73.5863 55.4547V55.425C73.5863 55.3953 73.5863 55.3656 73.5561 55.3359ZM80.1687 55.9598L80.1989 55.9895L80.2291 55.93C80.2291 55.93 80.1989 55.93 80.1687 55.9598ZM79.0515 65.5552H79.0817L79.0515 65.4958V65.5552ZM71.835 61.2179V61.1882L71.7746 61.1585V61.1882C71.7746 61.2179 71.8048 61.2179 71.835 61.2179ZM72.2577 58.4849V58.4255V58.4552V58.4849ZM78.9005 61.9012L78.8703 61.8715V61.9012H78.9005ZM79.1421 54.6229L79.1119 54.6526C79.1421 54.6526 79.1421 54.6526 79.1421 54.6229Z" fill="#FF6347"/>
<path d="M27.406 77.7768C27.406 78.3149 27.2524 78.7352 26.9451 79.0375C26.6378 79.3398 26.2106 79.491 25.6637 79.491H24.3198V73.7257H25.484C25.9997 73.7257 26.3968 73.85 26.6755 74.0985C26.9542 74.3471 27.0935 74.7276 27.0935 75.2401C27.0935 75.4553 27.0336 75.6564 26.9138 75.8435C26.794 76.0306 26.6508 76.1907 26.4841 76.3239C26.7497 76.4931 26.9698 76.6955 27.1443 76.9312C27.3188 77.167 27.406 77.4488 27.406 77.7768ZM26.5778 75.2401C26.5778 74.9582 26.4997 74.7237 26.3434 74.5367C26.1872 74.3497 25.958 74.2561 25.6559 74.2561H24.8589V76.1241H25.734C25.859 76.1241 25.9723 76.0997 26.0739 76.051C26.1755 76.0024 26.264 75.9383 26.3395 75.8589C26.4151 75.7794 26.4737 75.6859 26.5153 75.5783C26.557 75.4707 26.5778 75.3579 26.5778 75.2401ZM26.8826 77.8076C26.8826 77.4386 26.7784 77.1529 26.57 76.9504C26.3617 76.748 26.0726 76.6468 25.7028 76.6468H24.8589V78.9453H25.5778C25.7601 78.9453 25.9307 78.9222 26.0895 78.8761C26.2484 78.8299 26.3864 78.7608 26.5036 78.6685C26.6208 78.5763 26.7133 78.4584 26.781 78.3149C26.8487 78.1714 26.8826 78.0023 26.8826 77.8076ZM30.7579 79.491H27.828V73.7257H30.7032V74.3099H28.3671V76.2932H30.6876V76.7929H28.3671V78.9068H30.7579V79.491ZM34.0082 77.9997C34.0082 78.4712 33.8832 78.8492 33.6332 79.1336C33.3832 79.418 33.0108 79.5602 32.5159 79.5602C32.2242 79.5602 31.9781 79.5192 31.7776 79.4372C31.5771 79.3552 31.4143 79.2374 31.2893 79.0836C31.1642 78.9299 31.0744 78.7454 31.0197 78.5301C30.965 78.3149 30.9403 78.074 30.9455 77.8076L30.9533 77.6077H31.5549C31.5549 77.7717 31.5601 77.9395 31.5705 78.1112C31.5809 78.2829 31.6148 78.4392 31.6721 78.5801C31.7294 78.7211 31.8179 78.8364 31.9377 78.926C32.0575 79.0157 32.2294 79.0606 32.4534 79.0606C32.7972 79.0606 33.0498 78.9709 33.2113 78.7915C33.3727 78.6121 33.4535 78.361 33.4535 78.0382C33.4535 77.7819 33.391 77.5795 33.266 77.4309C33.141 77.2823 32.9847 77.1567 32.7972 77.0542C32.6097 76.9517 32.4078 76.8595 32.1917 76.7775C31.9755 76.6955 31.7737 76.593 31.5861 76.47C31.3986 76.347 31.2424 76.1894 31.1173 75.9972C30.9923 75.8051 30.9298 75.5501 30.9298 75.2324C30.9298 74.7199 31.064 74.3317 31.3322 74.0678C31.6005 73.8039 31.995 73.6719 32.5159 73.6719C32.7607 73.6719 32.973 73.7103 33.1527 73.7872C33.3324 73.8641 33.4821 73.9717 33.6019 74.11C33.7217 74.2484 33.8103 74.4124 33.8676 74.602C33.9249 74.7916 33.9535 75.0018 33.9535 75.2324V75.7167H33.3832C33.3832 75.5475 33.3819 75.372 33.3793 75.1901C33.3767 75.0082 33.3493 74.8416 33.2972 74.6904C33.2451 74.5393 33.1579 74.415 33.0355 74.3176C32.9131 74.2202 32.7347 74.1715 32.5003 74.1715C32.1617 74.1715 31.9065 74.2561 31.7346 74.4252C31.5627 74.5943 31.482 74.8429 31.4924 75.1709V75.2477C31.4976 75.4066 31.5249 75.5386 31.5744 75.6436C31.6239 75.7487 31.6916 75.8384 31.7775 75.9127C31.8635 75.987 31.9638 76.0523 32.0784 76.1087C32.193 76.1651 32.318 76.224 32.4534 76.2855C32.6513 76.3726 32.8441 76.4649 33.0316 76.5622C33.2191 76.6596 33.3845 76.7736 33.5277 76.9043C33.6709 77.035 33.7868 77.1888 33.8754 77.3656C33.9639 77.5424 34.0082 77.7537 34.0082 77.9997ZM37.1179 74.2868H35.9068V79.491H35.3286V74.2868H34.1176V73.7257H37.1179V74.2868ZM41.7433 74.3022H39.4853V76.4162H41.7042V76.9697H39.4853V79.491H38.8993V73.7257H41.7433V74.3022ZM45.0874 77.9997C45.0874 78.5429 44.9636 78.9389 44.7162 79.1874C44.4688 79.4359 44.0664 79.5602 43.5091 79.5602C42.9986 79.5602 42.6249 79.4219 42.3879 79.1451C42.1509 78.8684 42.0324 78.4866 42.0324 77.9997V75.2324C42.0324 74.7045 42.1587 74.3124 42.4113 74.0562C42.664 73.8 43.0611 73.6719 43.6028 73.6719C44.1185 73.6719 44.4949 73.8064 44.7319 74.0754C44.9688 74.3445 45.0874 74.725 45.0874 75.217V77.9997ZM44.5404 77.9844L44.5404 75.2093C44.5404 74.9172 44.4623 74.6738 44.306 74.479C44.1498 74.2843 43.9127 74.1869 43.595 74.1869C43.2148 74.1869 42.9504 74.2843 42.802 74.479C42.6535 74.6738 42.5793 74.9479 42.5793 75.3015V77.9536C42.5793 78.1022 42.5962 78.2419 42.6301 78.3726C42.6639 78.5032 42.7186 78.6173 42.7942 78.7146C42.8697 78.812 42.9661 78.8889 43.0833 78.9453C43.2005 79.0016 43.3424 79.0298 43.5091 79.0298C43.8737 79.0298 44.1368 78.9427 44.2982 78.7685C44.4597 78.5942 44.5404 78.3329 44.5404 77.9844ZM49.2049 79.491L48.533 79.491L47.3063 77.1618H46.2906V79.491H45.7671V73.7257H47.111C47.6475 73.7257 48.072 73.8769 48.3845 74.1792C48.6971 74.4816 48.8533 74.8967 48.8533 75.4245C48.8533 75.5885 48.8312 75.7551 48.7869 75.9242C48.7426 76.0933 48.6788 76.2522 48.5955 76.4008C48.5121 76.5494 48.4093 76.6839 48.2869 76.8044C48.1644 76.9248 48.0251 77.0183 47.8688 77.085L49.2049 79.491ZM48.2986 75.3861C48.2986 75.2067 48.2673 75.0453 48.2048 74.9018C48.1423 74.7583 48.0564 74.6366 47.947 74.5367C47.8376 74.4367 47.7074 74.3599 47.5563 74.3061C47.4053 74.2523 47.2412 74.2253 47.0641 74.2253H46.2906V76.6314H47.111C47.5277 76.6314 47.8298 76.5212 48.0173 76.3009C48.2048 76.0805 48.2986 75.7756 48.2986 75.3861ZM53.9007 74.2868H52.6896V79.491H52.1114V74.2868H50.9004V73.7257H53.9007V74.2868ZM57.2838 79.491H56.69L56.6822 76.8774H54.807L54.8148 79.491H54.2288V73.7257H54.8148L54.807 76.3316H56.6822L56.69 73.7257H57.2838V79.491ZM60.9013 79.491H57.9714V73.7257H60.8466V74.3099H58.5105V76.2932H60.831V76.7929H58.5105V78.9068H60.9013V79.491ZM65.808 77.7768C65.808 78.3149 65.6543 78.7352 65.347 79.0375C65.0397 79.3398 64.6126 79.491 64.0657 79.491H62.7218V73.7257H63.886C64.4016 73.7257 64.7988 73.85 65.0775 74.0985C65.3562 74.3471 65.4955 74.7276 65.4955 75.2401C65.4955 75.4553 65.4356 75.6564 65.3158 75.8435C65.196 76.0306 65.0527 76.1907 64.886 76.3239C65.1517 76.4931 65.3718 76.6955 65.5463 76.9312C65.7208 77.167 65.808 77.4488 65.808 77.7768ZM64.9798 75.2401C64.9798 74.9582 64.9017 74.7237 64.7454 74.5367C64.5891 74.3497 64.36 74.2561 64.0578 74.2561H63.2609V76.1241H64.136C64.261 76.1241 64.3743 76.0997 64.4759 76.051C64.5774 76.0024 64.666 75.9383 64.7415 75.8589C64.817 75.7794 64.8756 75.6859 64.9173 75.5783C64.959 75.4707 64.9798 75.3579 64.9798 75.2401ZM65.2845 77.8076C65.2845 77.4386 65.1804 77.1529 64.972 76.9504C64.7636 76.748 64.4746 76.6468 64.1047 76.6468H63.2609V78.9453H63.9797C64.162 78.9453 64.3326 78.9222 64.4915 78.8761C64.6504 78.8299 64.7884 78.7608 64.9056 78.6685C65.0228 78.5763 65.1152 78.4584 65.183 78.3149C65.2507 78.1714 65.2845 78.0023 65.2845 77.8076ZM69.1599 79.491H66.2299V73.7257H69.1052V74.3099H66.769V76.2932H69.0896V76.7929H66.769V78.9068H69.1599V79.491ZM72.4102 77.9997C72.4102 78.4712 72.2852 78.8492 72.0352 79.1336C71.7852 79.418 71.4127 79.5602 70.9179 79.5602C70.6262 79.5602 70.3801 79.5192 70.1795 79.4372C69.979 79.3552 69.8162 79.2374 69.6912 79.0836C69.5662 78.9299 69.4764 78.7454 69.4217 78.5301C69.367 78.3149 69.3422 78.074 69.3474 77.8076L69.3552 77.6077H69.9569C69.9569 77.7717 69.9621 77.9395 69.9725 78.1112C69.9829 78.2829 70.0168 78.4392 70.0741 78.5801C70.1313 78.7211 70.2199 78.8364 70.3397 78.926C70.4595 79.0157 70.6314 79.0606 70.8554 79.0606C71.1992 79.0606 71.4518 78.9709 71.6133 78.7915C71.7747 78.6121 71.8555 78.361 71.8555 78.0382C71.8555 77.7819 71.793 77.5795 71.6679 77.4309C71.5429 77.2823 71.3867 77.1567 71.1992 77.0542C71.0116 76.9517 70.8098 76.8595 70.5936 76.7775C70.3775 76.6955 70.1756 76.593 69.9881 76.47C69.8006 76.347 69.6443 76.1894 69.5193 75.9972C69.3943 75.8051 69.3318 75.5501 69.3318 75.2324C69.3318 74.7199 69.4659 74.3317 69.7342 74.0678C70.0024 73.8039 70.397 73.6719 70.9179 73.6719C71.1627 73.6719 71.3749 73.7103 71.5546 73.7872C71.7344 73.8641 71.8841 73.9717 72.0039 74.11C72.1237 74.2484 72.2123 74.4124 72.2696 74.602C72.3268 74.7916 72.3555 75.0018 72.3555 75.2324V75.7167H71.7851C71.7851 75.5475 71.7838 75.372 71.7812 75.1901C71.7786 75.0082 71.7513 74.8416 71.6992 74.6904C71.6471 74.5393 71.5598 74.415 71.4374 74.3176C71.315 74.2202 71.1366 74.1715 70.9022 74.1715C70.5637 74.1715 70.3084 74.2561 70.1365 74.4252C69.9646 74.5943 69.8839 74.8429 69.8943 75.1709V75.2477C69.8995 75.4066 69.9269 75.5386 69.9764 75.6436C70.0258 75.7487 70.0936 75.8384 70.1795 75.9127C70.2655 75.987 70.3657 76.0523 70.4803 76.1087C70.5949 76.1651 70.7199 76.224 70.8554 76.2855C71.0533 76.3726 71.246 76.4649 71.4335 76.5622C71.621 76.6596 71.7864 76.7736 71.9297 76.9043C72.0729 77.035 72.1888 77.1888 72.2774 77.3656C72.3659 77.5424 72.4102 77.7537 72.4102 77.9997ZM75.5198 74.2868H74.3088V79.491H73.7306V74.2868H72.5196V73.7257H75.5198V74.2868Z" fill="#FF6347"/>
</svg>
