<svg width="24" height="24" viewBox="0 0 24 24" fill="none" xmlns="http://www.w3.org/2000/svg">
<path d="M17.9 21H6.79998V8.2L13.75 1L14.725 1.775C14.825 1.85833 14.9 1.975 14.95 2.125C15 2.275 15.025 2.45833 15.025 2.675V2.925L13.9 8.2H21.375C21.775 8.2 22.125 8.35 22.425 8.65C22.725 8.95 22.875 9.3 22.875 9.7V11.75C22.875 11.8667 22.8875 11.9875 22.9125 12.1125C22.9375 12.2375 22.925 12.3583 22.875 12.475L19.725 19.725C19.575 20.075 19.3291 20.375 18.9875 20.625C18.6458 20.875 18.2833 21 17.9 21ZM8.29998 19.5H18.225L21.375 12.025V9.7H12.05L13.375 3.475L8.29998 8.825V19.5ZM6.79998 8.2V9.7H3.47498V19.5H6.79998V21H1.97498V8.2H6.79998Z" fill="black"/>
</svg>
