<svg width="45" height="45" viewBox="0 0 45 45" fill="none" xmlns="http://www.w3.org/2000/svg">
<path d="M37.2229 39.0479L25.1011 26.9252C24.1793 27.7242 23.1044 28.3464 21.8766 28.792C20.6488 29.2376 19.3423 29.4604 17.957 29.4604C14.6335 29.4604 11.8208 28.308 9.51873 26.0033C7.21669 23.6986 6.06567 20.9176 6.06567 17.6604C6.06567 14.4031 7.21794 11.6221 9.52246 9.31738C11.827 7.0127 14.6155 5.86035 17.8879 5.86035C21.1603 5.86035 23.9411 7.0127 26.2303 9.31738C28.5194 11.6221 29.664 14.4054 29.664 17.6673C29.664 18.984 29.4489 20.257 29.0188 21.4861C28.5886 22.7153 27.9433 23.8676 27.083 24.9432L39.2509 37.0197L37.2229 39.0479ZM17.9109 26.6947C20.4075 26.6947 22.5296 25.8113 24.2772 24.0443C26.0248 22.2774 26.8986 20.1494 26.8986 17.6604C26.8986 15.1713 26.0248 13.0433 24.2772 11.2764C22.5296 9.50944 20.4075 8.62598 17.9109 8.62598C15.3888 8.62598 13.2449 9.50944 11.4794 11.2764C9.71386 13.0433 8.83111 15.1713 8.83111 17.6604C8.83111 20.1494 9.71386 22.2774 11.4794 24.0443C13.2449 25.8113 15.3888 26.6947 17.9109 26.6947Z" fill="black"/>
</svg>
